<svg width="124" height="124" viewBox="0 0 124 124" fill="none" xmlns="http://www.w3.org/2000/svg">
<circle cx="56.4445" cy="67.5556" r="55" stroke="white" stroke-opacity="0.5" stroke-width="1.11111"/>
<circle cx="67.5556" cy="56.4442" r="55" stroke="white" stroke-opacity="0.5" stroke-width="1.11111"/>
<path d="M25.4742 39.2288L21.8139 28.4146L10.687 26.4526L21.4282 22.4427L23.6559 11.0771L27.3162 21.8913L38.4431 23.8533L27.7019 27.8632L25.4742 39.2288Z" fill="#E09B6B"/>
<path d="M25.3684 37.5902L22.2132 28.2682L22.1358 28.0396L21.8982 27.9977L12.2861 26.3028L21.565 22.8389L21.7944 22.7533L21.8414 22.513L23.7617 12.7158L26.9169 22.0377L26.9943 22.2663L27.2319 22.3082L36.844 24.0031L27.5651 27.467L27.3357 27.5527L27.2887 27.7929L25.3684 37.5902Z" stroke="white" stroke-opacity="0.5" stroke-width="0.844444"/>
</svg>
