<svg width="50" height="50" viewBox="0 0 50 50" fill="none" xmlns="http://www.w3.org/2000/svg">
<g clip-path="url(#clip0_167_101)">
<path d="M25.0001 27.0837C28.4522 27.0837 31.2501 29.8816 31.2501 33.3337C31.2501 35.1045 30.5147 36.7003 29.3334 37.8378L25.3542 41.667H31.2501V45.8337H18.7501V42.242L26.4438 34.8357C26.8397 34.4545 27.0834 33.9232 27.0834 33.3337C27.0834 32.1837 26.1501 31.2503 25.0001 31.2503C23.8501 31.2503 22.9167 32.1837 22.9167 33.3337H18.7501C18.7501 29.8816 21.548 27.0837 25.0001 27.0837ZM37.5001 27.0837V35.417H41.6668V27.0837H45.8334V45.8337H41.6668V39.5837H33.3334V27.0837H37.5001ZM8.33342 25.0003C8.33342 30.2649 10.773 34.9587 14.5834 38.0128V43.0462C8.35633 39.4441 4.16675 32.7128 4.16675 25.0003H8.33342ZM25.0001 4.16699C35.8022 4.16699 44.6855 12.3899 45.7293 22.917H41.5376C40.5126 14.6962 33.5001 8.33366 25.0001 8.33366C19.2709 8.33366 14.2167 11.2232 11.2188 15.6253H16.6667V19.792H4.16675V7.29199H8.33342V12.5003C12.1334 7.43783 18.1855 4.16699 25.0001 4.16699Z" fill="#1D4734"/>
</g>
<defs>
<clipPath id="clip0_167_101">
<rect width="50" height="50" fill="white"/>
</clipPath>
</defs>
</svg>
