<svg width="23" height="23" viewBox="0 0 23 23" fill="none" xmlns="http://www.w3.org/2000/svg">
<g clip-path="url(#clip0_16_1360)">
<path d="M22.7778 11.222C22.7778 5.08545 17.8032 0.11084 11.6667 0.11084C5.53015 0.11084 0.555542 5.08545 0.555542 11.222C0.555542 16.7677 4.61869 21.3645 9.93054 22.1981V14.4338H7.10936V11.222H9.93054V8.77404C9.93054 5.98931 11.5894 4.45112 14.1274 4.45112C15.3427 4.45112 16.6146 4.66813 16.6146 4.66813V7.40251H15.2135C13.8333 7.40251 13.4028 8.25906 13.4028 9.13862V11.222H16.4844L15.9917 14.4338H13.4028V22.1981C18.7146 21.3645 22.7778 16.7677 22.7778 11.222Z" fill="#EDEDED"/>
</g>
<defs>
<clipPath id="clip0_16_1360">
<rect width="22.2222" height="22.2222" fill="white" transform="translate(0.555542 0.11084)"/>
</clipPath>
</defs>
</svg>
