<svg width="41" height="41" viewBox="0 0 41 41" fill="none" xmlns="http://www.w3.org/2000/svg">
<g clip-path="url(#clip0_390_62)">
<path d="M34.2229 30.2336C34.7749 30.2336 35.2229 29.7856 35.2229 29.2336V20.5136C35.2216 19.447 34.3563 18.5816 33.2896 18.5803H31.0376V11.767C31.0323 5.98829 26.3496 1.30563 20.5709 1.30029C14.7923 1.30563 10.1096 5.98829 10.1043 11.767V18.5736H7.85228C6.78561 18.575 5.92028 19.4403 5.91895 20.507V35.759C5.92161 38.4496 8.10295 40.631 10.7936 40.6336H30.3483C33.0389 40.631 35.2203 38.4496 35.2229 35.759C35.2229 35.207 34.7749 34.759 34.2229 34.759C33.6709 34.759 33.2229 35.207 33.2229 35.759C33.2203 37.3456 31.9349 38.631 30.3483 38.6336H10.7936C9.20694 38.631 7.92161 37.3456 7.91895 35.759L7.85228 20.5736H11.1043C11.6563 20.5736 12.1043 20.1256 12.1043 19.5736V11.767C12.4936 0.565627 28.6483 0.564293 29.0376 11.767V18.5736H17.9043C17.3523 18.5736 16.9043 19.0216 16.9043 19.5736C16.9043 20.1256 17.3523 20.5736 17.9043 20.5736C20.4603 20.5603 30.8949 20.523 33.2229 20.507V29.2336C33.2229 29.7856 33.6709 30.2336 34.2229 30.2336Z" fill="#1D4734"/>
<path d="M18.3662 29.6027C18.4155 32.5014 22.7275 32.5014 22.7769 29.6027C22.7275 26.704 18.4155 26.704 18.3662 29.6027Z" fill="#1D4734"/>
</g>
<defs>
<clipPath id="clip0_390_62">
<rect width="40" height="40" fill="white" transform="translate(0.571289 0.966797)"/>
</clipPath>
</defs>
</svg>
