<svg width="394" height="445" viewBox="0 0 394 445" fill="none" xmlns="http://www.w3.org/2000/svg">
<g style="mix-blend-mode:multiply">
<path d="M195.301 328.847C158.653 328.847 135.468 322.836 135.191 322.762L135.28 322.334C135.617 322.423 169.335 331.174 219.843 327.518C249.477 325.368 277.262 319.295 302.424 309.479C332.075 297.896 356.133 281.629 371.997 262.436C385.335 246.274 392.889 225.866 392.889 207.043C392.897 203.477 392.613 199.919 392.042 196.412C387.389 168.381 367.176 147.775 355.541 137.987C347.137 130.925 337.441 124.408 326.728 118.622C317.982 113.923 308.986 109.846 299.791 106.414C283.715 100.36 273.696 98.1546 273.596 98.1307L273.67 97.7007C273.77 97.7222 283.823 99.9321 299.916 105.998C309.125 109.434 318.136 113.518 326.895 118.225C337.631 124.023 347.349 130.555 355.773 137.636C367.456 147.46 387.753 168.154 392.425 196.33C392.997 199.86 393.28 203.441 393.271 207.029C393.271 225.967 385.684 246.491 372.276 262.737C356.37 281.983 332.259 298.288 302.547 309.894C277.351 319.725 249.532 325.803 219.864 327.956C211.154 328.586 202.932 328.847 195.301 328.847Z" fill="#B3B3B3"/>
</g>
<g style="mix-blend-mode:multiply">
<path d="M283.265 131.876C275.392 131.876 265.884 128.412 257.781 122.229C247.065 114.054 240.788 102.816 240.557 91.3935C240.346 80.2127 248.595 69.7271 258.938 68.0214C268.697 66.4183 279.99 70.3555 289.136 78.5332C298.05 86.5174 301.519 95.6436 302.595 99.1938C304.146 104.314 304.116 107.446 304.11 107.763C304.152 108.076 304.533 111.122 303.351 115.822C302.081 120.906 298.204 127.411 291.15 130.421C288.847 131.398 286.167 131.876 283.265 131.876ZM263.335 68.1097C261.884 68.1069 260.434 68.2219 258.997 68.4538C248.844 70.1261 240.747 80.4158 240.948 91.3887C241.177 102.665 247.391 113.774 258.003 121.871C269.002 130.256 282.571 133.608 291.015 130.02C297.934 127.067 301.73 120.702 302.978 115.712C304.165 110.955 303.729 107.854 303.725 107.828V107.806V107.782C303.725 107.751 303.812 104.557 302.234 99.3514C301.176 95.8347 297.735 86.8041 288.908 78.8916C281.162 71.9609 271.889 68.1097 263.335 68.1097Z" fill="#B3B3B3"/>
</g>
<g style="mix-blend-mode:multiply">
<path d="M286.116 169.623C283.589 169.621 281.065 169.457 278.554 169.131C267.291 167.681 255.742 163.099 245.16 155.881C221.956 140.04 206.287 112.952 206.171 88.479C206.124 76.7033 209.917 65.4246 216.577 57.5288C222.997 49.9292 232.361 44.8524 242.943 43.2326C261.931 40.3443 283.83 48.0538 301.517 63.855C318.775 79.2931 325.63 96.9673 327.764 103.848C330.869 113.836 330.871 120.132 330.867 120.552C330.928 120.97 331.755 127.084 329.598 136.368C327.244 146.445 319.836 159.405 306.119 165.567C300.112 168.252 293.308 169.623 286.116 169.623ZM250.987 43.075C248.314 43.071 245.643 43.2698 242.994 43.6698C232.5 45.2753 223.219 50.3066 216.859 57.8346C210.268 65.6468 206.513 76.8156 206.56 88.4766C206.676 112.802 222.269 139.739 245.361 155.506C255.894 162.688 267.388 167.251 278.599 168.696C288.502 169.965 297.961 168.744 305.963 165.158C319.549 159.056 326.882 146.227 329.213 136.251C331.421 126.783 330.482 120.664 330.482 120.605V120.583V120.559C330.482 120.497 330.575 114.2 327.4 103.989C325.268 97.1441 318.457 79.563 301.28 64.1966C286.108 50.6483 267.835 43.0726 250.987 43.0726V43.075Z" fill="#B3B3B3"/>
</g>
<g style="mix-blend-mode:multiply">
<path d="M287.436 208.775C284.158 208.774 280.883 208.581 277.624 208.197C260.973 206.233 243.901 199.573 228.255 188.937C211.433 177.488 197.162 162.129 187.009 144.519C176.784 126.776 171.257 107.169 171.446 89.3081C171.636 72.1069 177.465 55.6941 187.434 44.2792C196.972 33.3779 210.727 26.151 226.167 23.9268C253.65 20.0016 285.236 31.2038 310.669 53.9023C335.508 76.099 345.521 101.581 348.673 111.505C350.542 117.325 351.9 123.338 352.727 129.459C353.246 133.334 353.349 135.539 353.362 135.744C353.432 136.181 354.766 145.112 351.754 158.873C349.957 167.21 346.652 175.037 342.046 181.86C337.877 188.007 330.325 196.555 318.03 202.351C309.059 206.575 298.448 208.773 287.436 208.775ZM237.24 23.5947C233.556 23.5897 229.876 23.8466 226.22 24.364C210.866 26.5739 197.192 33.7577 187.724 44.5897C177.825 55.921 172.038 72.2239 171.847 89.3129C171.659 107.087 177.165 126.608 187.348 144.278C197.475 161.833 211.691 177.147 228.465 188.559C244.064 199.164 261.079 205.803 277.672 207.76C292.055 209.449 306.335 207.385 317.888 201.945C330.103 196.187 337.604 187.699 341.745 181.593C346.318 174.816 349.6 167.044 351.384 158.765C354.436 144.827 353 135.899 352.985 135.811V135.78C352.985 135.759 352.897 133.551 352.351 129.523C351.528 123.431 350.176 117.446 348.315 111.653C345.174 101.765 335.201 76.3737 310.436 54.2463C288.424 34.6035 261.794 23.5947 237.24 23.5947Z" fill="#B3B3B3"/>
</g>
<g style="mix-blend-mode:multiply">
<path d="M286.095 248.486C282.244 248.486 278.342 248.276 274.389 247.857C252.768 245.552 230.605 237.054 210.282 223.284C188.424 208.452 169.982 188.47 156.942 165.497C150.364 153.886 145.361 141.822 142.074 129.637C138.8 117.496 137.29 105.455 137.584 93.8493C138.153 71.7147 145.998 50.6648 159.108 36.0987C171.562 22.2828 189.338 13.1638 209.161 10.4522C244.185 5.67406 284.322 19.9654 316.522 48.689C347.996 76.801 360.841 109.18 364.902 121.794C367.319 129.228 369.089 136.909 370.19 144.729C370.888 149.725 371.036 152.558 371.051 152.79C371.134 153.287 372.94 164.735 369.243 182.562C366.956 193.569 362.872 203.622 357.104 212.442C351.816 220.505 342.232 231.748 326.501 239.515C319.233 243.098 311.289 245.648 302.889 247.088C297.33 248.029 291.716 248.496 286.095 248.486ZM222.766 9.98392C218.238 9.97852 213.713 10.2809 209.216 10.8894C189.477 13.5986 171.778 22.6626 159.389 36.4117C146.351 50.8989 138.54 71.839 137.981 93.8613C137.689 105.42 139.193 117.413 142.455 129.508C145.731 141.657 150.719 153.683 157.278 165.258C170.267 188.176 188.669 208.111 210.483 222.899C230.751 236.636 252.863 245.117 274.427 247.413C284.236 248.455 293.796 248.197 302.851 246.646C311.217 245.213 319.138 242.673 326.364 239.104C342.016 231.375 351.56 220.192 356.81 212.172C362.546 203.402 366.607 193.404 368.883 182.455C372.623 164.424 370.706 152.967 370.685 152.852V152.821C370.685 152.792 370.55 149.954 369.839 144.791C368.735 136.998 366.964 129.344 364.551 121.937C360.501 109.359 347.691 77.0686 316.293 49.0259C288.257 24.0292 254.196 9.98392 222.766 9.98392Z" fill="#B3B3B3"/>
</g>
<g style="mix-blend-mode:multiply">
<path d="M281.414 287.294C277.312 287.294 273.164 287.095 268.97 286.697C256.372 285.502 243.533 282.501 230.806 277.8C217.211 272.746 204.157 265.995 191.887 257.674C165.601 239.893 143.525 215.828 128.05 188.079C120.258 174.093 114.386 159.558 110.596 144.877C106.833 130.285 105.2 115.826 105.731 101.901C106.262 88.4096 108.961 75.1432 113.542 63.4989C118.066 52.0807 124.491 41.7509 132.467 33.0719C147.531 16.7642 168.831 6.05168 192.449 2.9029C214.593 -0.0332474 237.771 3.14181 261.337 12.311C281.9 20.3215 301.887 32.6825 319.132 48.0632C356.167 81.1373 371.413 119.377 376.242 134.282C379.141 143.102 381.28 152.217 382.632 161.5C383.501 167.545 383.689 170.928 383.689 171.102C383.689 171.276 384.051 174.628 384.112 180.62C384.246 189.375 383.455 198.117 381.756 206.661C379.125 219.882 374.353 231.997 367.584 242.671C361.362 252.466 350.028 266.16 331.332 275.783C322.66 280.237 313.188 283.447 303.152 285.323C295.966 286.648 288.695 287.308 281.414 287.294ZM208.195 2.32236C202.949 2.31746 197.707 2.65888 192.496 3.34488C168.96 6.47693 147.741 17.1488 132.746 33.3897C124.806 42.0286 118.411 52.3114 113.908 63.6781C109.35 75.2555 106.658 88.4837 106.129 101.92C105.589 115.798 107.22 130.204 110.97 144.753C114.75 159.396 120.607 173.9 128.38 187.845C143.828 215.536 165.853 239.551 192.09 257.302C204.335 265.606 217.362 272.342 230.929 277.386C243.62 282.078 256.436 285.065 269.002 286.262C280.767 287.382 292.235 286.923 303.086 284.898C313.089 283.029 322.546 279.83 331.169 275.392C349.783 265.811 361.072 252.175 367.265 242.423C374.006 231.796 378.753 219.726 381.371 206.572C383.065 198.055 383.853 189.341 383.721 180.613C383.658 174.511 383.298 171.169 383.298 171.135V171.121C383.298 171.088 383.12 167.71 382.241 161.565C380.901 152.31 378.776 143.223 375.895 134.428C371.07 119.558 355.858 81.4073 318.899 48.4025C285.816 18.9096 245.481 2.32236 208.195 2.32236Z" fill="#B3B3B3"/>
</g>
<g style="mix-blend-mode:multiply">
<path d="M274.057 323.878C269.94 323.878 265.78 323.7 261.578 323.345C247.226 322.126 232.6 318.844 218.1 313.588C202.604 307.929 187.726 300.303 173.751 290.856C143.804 270.659 118.756 243.199 101.34 211.444C92.5852 195.473 86.0429 178.871 81.8929 162.098C77.7831 145.46 76.11 128.981 76.918 113.122C77.7049 97.7939 80.9643 82.7142 86.3454 69.5123C91.6531 56.5802 99.0888 44.9055 108.257 35.1098C125.512 16.7404 149.733 4.69238 176.456 1.17091C201.397 -2.08777 227.432 1.46237 253.872 11.7329C276.94 20.6967 299.33 34.5317 318.622 51.7425C334.985 66.3611 349.199 83.321 360.867 102.152C372.568 121.042 379.176 137.78 382.653 148.499C385.92 158.454 388.341 168.737 389.881 179.211C390.875 186.055 391.099 189.882 391.109 190.074C391.12 190.265 391.533 194.049 391.619 200.855C391.803 210.799 390.951 220.732 389.081 230.451C386.173 245.526 380.851 259.38 373.266 271.629C366.273 282.908 353.506 298.714 332.394 309.98C322.582 315.212 311.835 319.025 300.455 321.314C291.739 323.041 282.906 323.899 274.057 323.878ZM194.082 0.47808C188.208 0.471246 182.339 0.846951 176.503 1.60333C149.852 5.11285 125.72 17.1322 108.525 35.4109C99.3908 45.1705 91.9843 56.8043 86.7007 69.6914C81.3387 82.8432 78.0919 97.8823 77.3072 113.144C76.5013 128.957 78.1702 145.396 82.2694 161.978C86.4067 178.702 92.9363 195.277 101.672 211.212C119.063 242.908 144.056 270.317 173.95 290.476C187.898 299.909 202.75 307.523 218.219 313.172C232.689 318.428 247.285 321.694 261.605 322.912C274.996 324.042 288.045 323.361 300.374 320.886C311.725 318.602 322.44 314.801 332.221 309.589C353.254 298.36 365.973 282.616 372.936 271.383C380.493 259.182 385.794 245.38 388.692 230.36C390.56 220.676 391.412 210.777 391.23 200.867C391.137 193.939 390.729 190.162 390.725 190.117V190.102C390.725 190.064 390.513 186.239 389.5 179.28C387.965 168.833 385.552 158.575 382.293 148.645C376.857 131.922 359.748 89.0332 318.381 52.0841C281.357 19.0602 236.05 0.47808 194.082 0.47808Z" fill="#B3B3B3"/>
</g>
<g style="mix-blend-mode:multiply">
<path d="M264.518 357.028C260.55 357.028 256.547 356.877 252.508 356.574C236.817 355.38 220.829 351.93 204.984 346.284C188.043 340.205 171.781 331.937 156.519 321.646C124.273 299.961 96.291 269.104 77.726 234.754C68.2733 217.256 61.2636 199.059 56.8936 180.665C52.5638 162.456 50.9097 144.409 51.9758 127.043C53.008 110.293 56.7413 93.8161 62.7759 79.3982C68.7174 65.2853 76.9569 52.5612 87.0646 41.89C106.038 21.939 132.499 8.83978 161.574 4.97906C188.6 1.42415 216.78 5.21797 245.335 16.2674C270.265 25.912 294.429 40.8125 315.213 59.3635C332.851 75.1313 348.173 93.4506 360.752 113.82C373.361 134.237 380.493 152.365 384.254 163.99C387.792 174.809 390.412 185.982 392.08 197.36C393.163 204.814 393.407 208.985 393.419 209.184C393.432 209.382 393.872 213.508 393.98 220.933C394.186 231.794 393.273 242.645 391.258 253.266C388.125 269.784 382.374 285 374.165 298.494C366.578 310.945 352.719 328.438 329.763 341.06C319.073 346.929 307.359 351.251 294.947 353.903C284.912 356.012 274.725 357.058 264.518 357.028ZM180.871 4.17634C174.439 4.16942 168.012 4.58342 161.623 5.41626C132.617 9.25786 106.243 22.3236 87.329 42.2101C77.2585 52.8443 69.0484 65.5228 63.127 79.5845C57.1157 93.9547 53.3972 110.377 52.365 127.074C51.3074 144.392 52.9509 162.384 57.2659 180.551C61.6295 198.904 68.6244 217.063 78.0539 234.527C96.5871 268.814 124.52 299.619 156.713 321.269C171.95 331.546 188.187 339.803 205.1 345.876C220.918 351.512 236.875 354.954 252.533 356.149C267.16 357.248 281.406 356.347 294.873 353.473C307.249 350.828 318.931 346.521 329.592 340.665C352.469 328.087 366.282 310.656 373.841 298.248C382.023 284.802 387.753 269.639 390.875 253.176C392.884 242.587 393.795 231.77 393.589 220.943C393.481 213.398 393.034 209.274 393.03 209.236V209.222C393.03 209.181 392.795 205.015 391.695 197.434C390.031 186.078 387.416 174.926 383.886 164.128C378.017 146.007 359.549 99.5546 314.967 59.71C275.14 24.1584 226.282 4.17634 180.871 4.17634Z" fill="#B3B3B3"/>
</g>
<g style="mix-blend-mode:multiply">
<path d="M253.345 385.74C249.631 385.74 245.89 385.614 242.122 385.362C225.544 384.249 208.656 380.708 191.925 374.85C174.038 368.535 156.867 359.875 140.763 349.048C106.746 326.231 77.3241 293.622 57.9173 257.23C48.0479 238.707 40.7716 219.433 36.2959 199.94C34.1125 190.476 32.6016 180.83 31.7779 171.095C31.0017 161.801 30.9309 152.45 31.5663 143.143C32.8058 125.416 36.8966 107.978 43.3987 92.717C49.7942 77.7874 58.5929 64.3319 69.3456 53.0372C89.5012 31.9562 117.472 18.0662 148.107 13.9188C176.492 10.0963 206.063 13.9976 235.993 25.4961C262.143 35.5421 287.44 51.1068 309.157 70.5084C327.946 87.3106 344.136 106.7 357.25 128.14C367.441 144.806 375.527 162.346 381.282 180.271C384.978 191.672 387.709 203.442 389.441 215.424C390.568 223.293 390.818 227.694 390.828 227.897C390.839 228.1 391.3 232.458 391.404 240.306C391.589 251.792 390.616 263.265 388.504 274.503C385.191 292.012 379.131 308.174 370.486 322.539C365.037 331.572 358.623 339.811 351.388 347.07C343.016 355.437 333.699 362.514 323.68 368.115C312.399 374.456 300.038 379.16 286.937 382.099C275.872 384.547 264.621 385.766 253.345 385.74ZM168.884 12.9894C161.957 12.9814 155.035 13.4377 148.155 14.356C117.599 18.4914 89.7064 32.3432 69.61 53.3573C58.8905 64.612 50.1177 78.0205 43.7392 92.8986C37.2583 108.114 33.1802 125.497 31.945 143.172C31.3112 152.449 31.382 161.771 32.1565 171.035C32.9805 180.748 34.4907 190.37 36.6724 199.811C41.1397 219.261 48.399 238.497 58.2473 256.984C77.6224 293.314 107 325.867 140.964 348.652C157.041 359.464 174.183 368.113 192.041 374.423C208.74 380.278 225.596 383.812 242.143 384.934C257.584 385.967 272.634 384.875 286.858 381.688C299.926 378.759 312.255 374.067 323.504 367.743C333.493 362.159 342.782 355.104 351.13 346.764C358.342 339.529 364.736 331.316 370.167 322.312C378.784 307.997 384.825 291.885 388.127 274.431C390.232 263.223 391.2 251.78 391.012 240.325C390.906 232.357 390.443 228 390.439 227.957V227.942C390.439 227.899 390.2 223.501 389.056 215.505C387.328 203.55 384.602 191.807 380.916 180.431C375.174 162.542 367.102 145.037 356.928 128.402C343.833 106.999 327.679 87.6403 308.913 70.8643C267.435 33.7933 216.444 12.9894 168.884 12.9894Z" fill="#B3B3B3"/>
</g>
<g style="mix-blend-mode:multiply">
<path d="M241.113 409.246C237.7 409.246 234.264 409.142 230.808 408.935C213.811 407.908 196.5 404.382 179.365 398.452C161.048 392.068 143.465 383.253 126.984 372.194C92.1791 348.898 62.1541 315.478 42.4406 278.094C32.4167 259.072 25.0665 239.264 20.5929 219.223C18.4082 209.485 16.9178 199.565 16.1362 189.558C15.3961 179.995 15.3791 170.379 16.0854 160.813C17.4878 142.319 21.6801 124.855 28.5502 108.903C35.1763 93.5075 44.2863 79.6425 55.413 68.0193C76.1884 46.2789 104.908 31.892 136.306 27.4937C165.333 23.4538 195.548 27.3026 226.117 38.9444C253.125 49.2929 278.37 64.7752 300.764 84.7236C319.898 101.858 336.36 121.661 349.688 143.583C360.052 160.629 368.247 178.587 374.07 196.957C377.811 208.654 380.564 220.726 382.291 233.01C383.419 241.097 383.66 245.615 383.671 245.82C383.681 246.025 384.138 250.503 384.22 258.568C384.376 270.39 383.347 282.194 381.151 293.754C377.71 311.787 371.457 328.455 362.565 343.298C356.96 352.633 350.369 361.16 342.936 368.692C334.342 377.362 324.776 384.718 314.483 390.571C302.902 397.186 290.217 402.126 276.782 405.251C265.042 407.941 253.092 409.279 241.113 409.246ZM158.336 26.4282C150.983 26.4196 143.636 26.9207 136.338 27.9285C105.033 32.3172 76.3766 46.6707 55.6605 68.3418C44.5716 79.9289 35.4931 93.7501 28.8907 109.097C22.0502 124.998 17.8727 142.412 16.4746 160.851C15.7683 170.391 15.7853 179.982 16.5254 189.52C17.3043 199.503 18.7897 209.4 20.9673 219.115C25.4345 239.116 32.77 258.883 42.7727 277.869C62.4566 315.191 92.4287 348.564 127.183 371.816C143.637 382.858 161.191 391.658 179.479 398.032C196.585 403.949 213.861 407.471 230.829 408.496C246.662 409.451 262.092 408.211 276.691 404.819C290.095 401.713 302.746 396.777 314.295 390.179C324.554 384.342 334.089 377.008 342.655 368.364C350.064 360.853 356.635 352.349 362.22 343.04C371.085 328.245 377.319 311.627 380.749 293.649C382.938 282.121 383.964 270.35 383.81 258.561C383.728 250.374 383.269 245.899 383.262 245.853V245.839C383.262 245.794 383.032 241.278 381.885 233.067C380.164 220.812 377.42 208.769 373.689 197.098C367.879 178.766 359.693 160.841 349.364 143.822C336.058 121.935 319.625 102.166 300.518 85.0509C258.49 47.4829 206.763 26.4282 158.336 26.4282Z" fill="#B3B3B3"/>
</g>
<g style="mix-blend-mode:multiply">
<path d="M228.355 427.051C225.244 427.051 222.116 426.965 218.972 426.793C202.012 425.857 184.757 422.419 167.683 416.573C149.444 410.285 131.937 401.554 115.535 390.568C80.9137 367.437 51.1023 334.136 31.5876 296.809C21.6695 277.816 14.4165 258.021 10.0338 237.969C5.70618 218.14 4.27209 198.462 5.77598 179.483C7.25661 160.944 11.5039 143.423 18.4142 127.402C25.0882 111.931 34.2322 97.9845 45.387 86.262C66.2152 64.3519 94.9542 49.7524 126.31 45.1535C155.269 40.932 185.412 44.6135 215.905 56.1025C242.594 66.1581 268.315 81.8757 290.287 101.557C308.815 118.123 325.033 137.74 338.397 159.752C351.651 181.633 359.079 201.137 362.978 213.649C366.661 225.364 369.352 237.448 371.015 249.738C372.105 257.832 372.323 262.357 372.331 262.567C372.339 262.777 372.777 267.255 372.82 275.341C372.916 287.199 371.83 299.03 369.583 310.613C366.059 328.699 359.735 345.432 350.784 360.351C342.501 374.146 327.409 393.602 302.557 407.956C290.964 414.645 278.279 419.662 264.856 422.858C252.85 425.68 240.618 427.085 228.355 427.051ZM149.327 43.9589C141.646 43.9498 133.973 44.4972 126.354 45.5978C95.0854 50.1705 66.4225 64.7437 45.6514 86.5845C34.5328 98.269 25.4182 112.17 18.7653 127.59C11.8741 143.566 7.63311 161.037 6.16518 179.524C4.66551 198.452 6.09537 218.083 10.4146 237.864C14.7867 257.873 22.0248 277.63 31.9239 296.585C51.4047 333.854 81.1675 367.091 115.734 390.191C132.109 401.158 149.587 409.874 167.795 416.152C184.839 421.987 202.061 425.42 218.982 426.354C234.781 427.221 250.185 425.902 264.768 422.428C278.157 419.237 290.808 414.236 302.371 407.564C327.149 393.253 342.194 373.857 350.454 360.103C359.375 345.233 365.683 328.551 369.196 310.518C371.435 298.967 372.517 287.168 372.422 275.344C372.378 267.14 371.94 262.656 371.935 262.61C371.935 262.565 371.724 258.042 370.622 249.817C368.963 237.554 366.277 225.496 362.601 213.807C356.514 194.271 337.257 144.268 290.038 101.913C248.542 64.7246 197.401 43.9589 149.327 43.9589Z" fill="#B3B3B3"/>
</g>
<g style="mix-blend-mode:multiply">
<path d="M215.532 438.918C212.7 438.918 209.854 438.844 206.996 438.698C190.52 437.845 173.768 434.56 157.204 428.934C139.526 422.887 122.557 414.457 106.664 403.827C73.1383 381.451 44.2999 349.158 25.4599 312.897C15.8718 294.435 8.879 275.172 4.66556 255.643C0.502876 236.314 -0.850841 217.113 0.646709 198.576C2.11042 180.455 6.28156 163.302 13.029 147.591C19.5496 132.417 28.469 118.716 39.3482 107.161C59.6794 85.5522 87.7077 71.0483 118.272 66.3203C146.489 61.9794 175.875 65.391 205.608 76.4547C231.663 86.1519 256.719 101.404 278.07 120.561C296.094 136.705 311.839 155.85 324.765 177.342C337.587 198.712 344.728 217.777 348.455 230.007C351.985 241.468 354.541 253.284 356.086 265.293C357.1 273.208 357.286 277.63 357.294 277.838C357.303 278.046 357.698 282.425 357.69 290.328C357.706 301.932 356.571 313.502 354.305 324.821C350.754 342.5 344.48 358.87 335.66 373.465C327.504 386.951 312.681 405.982 288.394 420.051C277.072 426.609 264.704 431.535 251.62 434.698C239.755 437.532 227.659 438.946 215.532 438.918ZM141.905 64.9824C134.019 64.9729 126.141 65.5659 118.325 66.7575C87.8409 71.4711 59.8867 85.9345 39.6147 107.481C28.7714 118.999 19.8826 132.658 13.3865 147.785C6.65172 163.445 2.49749 180.548 1.03379 198.617C-0.446841 217.106 0.889955 236.256 5.05264 255.538C9.25339 275.026 16.2356 294.241 25.7984 312.675C44.6045 348.872 73.39 381.11 106.865 403.459C122.731 414.072 139.671 422.488 157.318 428.525C173.851 434.139 190.571 437.42 207.025 438.27C222.379 439.059 237.365 437.721 251.567 434.29C264.613 431.136 276.949 426.22 288.244 419.681C312.461 405.645 327.237 386.674 335.368 373.23C344.161 358.679 350.414 342.364 353.954 324.733C356.212 313.443 357.342 301.904 357.324 290.33C357.324 282.31 356.935 277.924 356.928 277.881V277.866C356.928 277.823 356.755 273.401 355.725 265.357C354.182 253.376 351.633 241.587 348.11 230.152C342.279 211.04 323.756 162.155 277.846 120.908C237.799 84.9908 188.458 64.9824 141.905 64.9824Z" fill="#B3B3B3"/>
</g>
<g style="mix-blend-mode:multiply">
<path d="M203.027 444.843C200.437 444.843 197.834 444.777 195.218 444.647C179.629 443.87 163.795 440.793 148.151 435.504C131.47 429.829 115.459 421.894 100.466 411.874C68.8613 390.8 41.6854 360.316 23.9433 326.045C14.9072 308.573 8.31418 290.328 4.34187 271.813C0.4182 253.463 -0.85091 235.215 0.553571 217.567C1.94113 200.297 5.88595 183.924 12.2632 168.907C18.4415 154.378 26.8976 141.232 37.2224 130.106C56.5404 109.273 83.1853 95.1757 112.25 90.4119C139.098 86.0327 167.076 89.0883 195.402 99.4903C220.262 108.619 244.117 123.075 264.389 141.299C281.523 156.672 296.456 174.935 308.664 195.447C320.775 215.845 327.468 234.049 330.949 245.727C334.241 256.676 336.597 267.956 337.985 279.413C338.894 286.964 339.042 291.183 339.042 291.384C339.042 291.585 339.393 295.768 339.328 303.301C339.26 314.378 338.095 325.411 335.855 336.196C332.341 353.036 326.25 368.627 317.746 382.543C309.895 395.365 295.672 413.467 272.503 426.867C261.715 433.098 249.953 437.788 237.528 440.805C226.186 443.522 214.622 444.875 203.027 444.843ZM136.021 88.9546C128.088 88.9443 120.164 89.5767 112.311 90.8467C83.3334 95.5985 56.754 109.658 37.4953 130.424C27.2064 141.513 18.7798 154.614 12.6228 169.093C6.25611 184.068 2.32186 200.39 0.94065 217.608C-0.468062 235.205 0.803163 253.408 4.7226 271.705C8.68434 290.178 15.2647 308.385 24.2817 325.818C41.99 360.026 69.1236 390.453 100.665 411.492C115.629 421.492 131.609 429.412 148.257 435.079C163.871 440.356 179.674 443.426 195.231 444.202C209.769 444.919 223.97 443.634 237.446 440.366C249.839 437.353 261.574 432.678 272.325 426.464C295.423 413.104 309.601 395.062 317.425 382.281C325.901 368.424 331.973 352.881 335.476 336.093C337.71 325.341 338.871 314.34 338.939 303.296C339.006 295.651 338.657 291.461 338.653 291.42V291.406C338.653 291.365 338.52 287.148 337.595 279.46C336.212 268.032 333.862 256.78 330.577 245.858C325.135 227.601 307.769 180.895 264.148 141.633C226.457 107.764 180.023 88.9546 136.021 88.9546Z" fill="#B3B3B3"/>
</g>
<g style="mix-blend-mode:multiply">
<path d="M191.14 445C188.757 445 186.363 444.94 183.959 444.821C154.769 443.366 123.869 432.699 96.9742 414.791C68.0131 395.485 43.1004 367.521 26.8241 336.052C18.5262 319.988 12.4578 303.191 8.79006 286.121C5.15617 269.187 3.95474 252.318 5.22386 235.984C7.63939 205.065 19.9053 175.357 38.8785 154.498C56.718 134.908 81.3641 121.529 108.28 116.849C133.176 112.534 159.148 115.177 185.484 124.704C208.609 133.071 230.762 146.449 249.542 163.354C265.424 177.636 279.234 194.632 290.471 213.728C301.622 232.718 307.725 249.669 310.881 260.553C313.865 270.746 315.971 281.24 317.171 291.89C317.958 298.919 318.06 302.839 318.064 303.021C318.068 303.202 318.356 307.113 318.233 314.094C318.078 324.385 316.905 334.625 314.734 344.622C311.424 360.011 305.597 374.566 297.555 387.539C290.186 399.384 276.881 416.097 255.351 428.456C245.093 434.293 234.208 438.604 222.969 441.283C212.504 443.78 201.836 445.026 191.14 445ZM131.619 115.31C123.826 115.299 116.043 115.958 108.339 117.281C81.5016 121.957 56.9401 135.285 39.1493 154.811C20.2417 175.596 8.01801 205.206 5.61093 236.025C4.34182 252.313 5.54325 269.132 9.16867 286.02C12.8258 303.045 18.8795 319.804 27.1604 335.83C43.405 367.236 68.2669 395.143 97.173 414.413C124.015 432.286 154.841 442.929 183.978 444.381C197.365 445.043 210.456 443.856 222.897 440.853C234.104 438.182 244.957 433.884 255.186 428.064C276.642 415.746 289.902 399.09 297.246 387.285C305.26 374.359 311.067 359.855 314.366 344.521C316.53 334.554 317.699 324.344 317.85 314.082C317.975 306.98 317.685 303.093 317.681 303.05V303.035C317.681 302.997 317.59 299.081 316.793 291.943C315.59 281.319 313.485 270.85 310.504 260.682C305.567 243.667 289.72 200.155 249.291 163.686C214.705 132.545 172.122 115.313 131.619 115.313V115.31Z" fill="#B3B3B3"/>
</g>
<g style="mix-blend-mode:multiply">
<path d="M180.078 439.744C177.885 439.744 175.683 439.688 173.472 439.575C147.455 438.244 119.983 428.752 96.0943 412.844C70.3821 395.7 48.2404 370.851 33.7492 342.868C26.3461 328.56 20.9164 313.578 17.6125 298.343C14.3319 283.199 13.215 268.086 14.2917 253.429C16.3476 225.592 27.2154 198.743 44.1158 179.77C60.0664 161.876 82.17 149.555 106.357 145.071C128.778 140.938 152.195 143.138 175.968 151.61C196.895 159.071 216.89 171.073 233.793 186.328C270.288 219.297 284.346 258.785 288.701 274.228C291.32 283.443 293.141 292.924 294.137 302.536C294.788 308.862 294.845 312.398 294.85 312.57C294.854 312.742 295.078 316.261 294.907 322.556C294.68 331.836 293.533 341.057 291.486 350.047C288.365 363.885 282.991 376.946 275.64 388.564C268.917 399.152 256.829 414.086 237.416 425.092C228.197 430.281 218.425 434.108 208.341 436.481C199.045 438.672 189.573 439.766 180.078 439.744ZM128.294 143.525C120.967 143.517 113.651 144.179 106.418 145.506C82.3054 149.973 60.28 162.253 44.3823 180.083C27.556 198.985 16.7284 225.73 14.6788 253.465C13.6064 268.076 14.7211 283.139 17.9911 298.238C21.2845 313.433 26.6993 328.374 34.0856 342.648C48.545 370.564 70.6359 395.358 96.291 412.464C120.127 428.337 147.542 437.809 173.495 439.135C185.438 439.74 197.132 438.705 208.267 436.056C218.316 433.69 228.055 429.877 237.245 424.71C256.586 413.742 268.63 398.865 275.318 388.318C282.64 376.743 287.993 363.732 291.104 349.947C293.144 340.988 294.287 331.799 294.511 322.552C294.685 316.151 294.456 312.642 294.454 312.606V312.592C294.454 312.558 294.405 309.027 293.743 302.589C292.751 293.004 290.936 283.55 288.324 274.362C283.982 258.957 269.956 219.574 233.541 186.672C209.039 164.554 170.16 143.525 128.294 143.525Z" fill="#B3B3B3"/>
</g>
<g style="mix-blend-mode:multiply">
<path d="M169.671 429.51C167.77 429.51 165.866 429.459 163.96 429.357C141.327 428.141 118.414 420.195 97.6849 406.384C75.7039 391.722 56.7434 370.462 44.2977 346.521C31.6446 322.153 25.6164 294.817 27.3233 269.555C28.9689 245.409 38.2081 222.013 52.6717 205.39C66.4035 189.622 85.5057 178.661 106.457 174.533C125.656 170.768 146.603 172.564 167.033 179.732C185.304 186.141 202.729 196.553 217.419 209.834C249.164 238.579 261.161 273.074 264.846 286.57C270.345 306.727 269.922 319.372 269.89 319.969C269.958 320.564 271.278 333.061 266.629 352.501C263.786 364.484 259.001 375.768 252.516 385.78C246.604 394.885 236.018 407.714 219.135 417.125C204.665 425.186 187.29 429.51 169.671 429.51ZM126.595 173.035C119.868 173.027 113.153 173.673 106.524 174.965C85.6601 179.079 66.6234 189.993 52.9509 205.698C38.5486 222.257 29.3497 245.545 27.7041 269.589C26.0119 294.762 32.0127 322.005 44.6255 346.299C57.0374 370.189 75.9493 391.38 97.8732 406.006C118.547 419.782 141.404 427.704 163.971 428.917C183.453 429.961 202.979 425.63 218.965 416.733C235.773 407.361 246.319 394.587 252.205 385.522C258.661 375.553 263.423 364.317 266.252 352.386C270.971 332.657 269.516 320.134 269.501 320.01V319.967C269.501 319.84 270.053 307.169 264.476 286.699C260.802 273.242 248.838 238.846 217.178 210.178C196.049 191.077 162.653 173.035 126.595 173.035Z" fill="#B3B3B3"/>
</g>
<g style="mix-blend-mode:multiply">
<path d="M160.836 414.838C159.093 414.838 157.342 414.788 155.584 414.688C137.112 413.622 118.429 407.11 101.551 395.855C84.4037 384.402 69.1892 367.186 58.7084 347.357C47.7412 326.62 42.6034 304.739 43.8493 284.076C45.0697 264.134 52.5215 244.733 64.2904 230.845C75.5326 217.61 91.2463 208.326 108.538 204.704C144.72 197.167 179.862 214.64 200.68 233.504C227.022 257.407 236.773 286.147 239.743 297.395C244.149 314.118 243.694 324.573 243.666 325.108C243.719 325.645 244.692 336.002 240.669 351.999C238.204 361.874 234.143 371.149 228.691 379.356C223.733 386.8 214.889 397.274 200.91 404.919C188.951 411.446 175.189 414.838 160.836 414.838ZM126.124 203.347C120.249 203.34 114.386 203.939 108.608 205.137C91.3965 208.737 75.7589 217.98 64.5717 231.158C52.8642 244.972 45.4505 264.275 44.2363 284.114C41.7489 325.402 65.3882 371.195 101.748 395.478C118.572 406.706 137.194 413.188 155.603 414.248C171.778 415.175 187.386 411.812 200.743 404.525C214.65 396.928 223.447 386.507 228.378 379.103C233.802 370.939 237.842 361.713 240.295 351.889C244.383 335.632 243.288 325.254 243.277 325.151V325.108C243.277 325.005 243.853 314.515 239.373 297.521C236.411 286.312 226.694 257.672 200.438 233.848C183.073 218.121 155.715 203.347 126.124 203.347Z" fill="#B3B3B3"/>
</g>
<g style="mix-blend-mode:multiply">
<path d="M152.993 395.915C151.251 395.915 149.501 395.854 147.743 395.731C133.531 394.707 119.733 389.911 107.47 381.733C79.8603 363.268 61.7289 328.343 63.3767 296.8C64.191 281.474 69.7645 266.495 78.6652 255.708C87.2232 245.349 99.2502 238.029 112.536 235.076C140.532 228.896 167.723 242.334 183.838 256.967C204.212 275.494 211.594 297.82 213.821 306.54C217.102 319.427 216.675 327.495 216.645 327.968C216.687 328.445 217.335 336.427 214.107 348.657C212.391 355.141 205.079 377.204 183.117 388.924C174.532 393.478 163.994 395.912 152.993 395.915ZM126.8 233.97C122.038 233.963 117.286 234.477 112.612 235.504C99.4088 238.428 87.4517 245.712 78.9508 256.004C70.1093 266.722 64.5675 281.601 63.7658 296.826C62.1266 328.209 80.1797 362.97 107.669 381.354C134.87 399.51 165.075 398.034 182.944 388.521C204.762 376.879 212.023 354.966 213.728 348.528C217.021 336.071 216.266 328.07 216.256 327.982V327.939C216.256 327.858 216.791 319.783 213.447 306.648C211.23 297.966 203.88 275.755 183.593 257.302C170.295 245.23 149.418 233.97 126.8 233.97Z" fill="#B3B3B3"/>
</g>
<g style="mix-blend-mode:multiply">
<path d="M146.009 374.076C135.168 374.057 124.531 370.757 115.203 364.52C96.7459 352.157 84.4948 328.725 85.4106 307.536C85.8464 297.741 89.5606 287.994 95.8681 280.091C102.002 272.42 109.987 267.111 118.376 265.143C137.512 260.677 156.121 269.816 167.158 279.857C181.093 292.555 186.03 307.866 187.506 313.86C189.657 322.616 189.319 328.106 189.292 328.493C189.321 328.88 189.685 334.315 187.388 342.553C186.17 346.927 181.042 361.801 166.046 369.587C160.694 372.354 153.712 374.076 146.009 374.076ZM128.569 264.419C125.172 264.414 121.783 264.8 118.456 265.573C101.01 269.665 86.6649 288.109 85.7998 307.56C84.8903 328.584 97.0632 351.858 115.412 364.143C133.582 376.286 153.864 375.426 165.906 369.186C180.746 361.476 185.831 346.75 187.037 342.429C189.363 334.017 188.919 328.572 188.913 328.524V328.481C188.913 328.426 189.336 322.941 187.14 313.984C185.675 308.033 180.772 292.825 166.923 280.206C157.911 271.999 143.828 264.409 128.569 264.409V264.419Z" fill="#B3B3B3"/>
</g>
<g style="mix-blend-mode:multiply">
<path d="M142.457 348.989C136.217 348.989 128.92 346.375 122.657 341.583C113.955 334.934 109.145 325.657 109.46 316.132C109.809 306.134 117.06 296.58 125.959 294.392C135.733 291.986 145.251 296.635 150.899 301.783C158.023 308.289 160.491 316.139 161.221 319.224C162.278 323.684 162.086 326.391 162.067 326.689C162.086 326.976 162.232 329.671 161.009 333.828C160.095 336.81 158.65 339.55 156.764 341.879C154.877 344.208 152.589 346.076 150.04 347.369C147.846 348.461 145.262 348.989 142.457 348.989ZM131.388 294.177C129.593 294.173 127.802 294.388 126.047 294.817C117.307 296.967 110.184 306.349 109.851 316.156C109.54 325.526 114.293 334.664 122.875 341.227C131.849 348.083 142.956 350.441 149.881 346.96C152.384 345.693 154.63 343.861 156.482 341.576C158.334 339.291 159.753 336.602 160.65 333.675C161.879 329.461 161.68 326.72 161.678 326.692V326.649C161.678 326.622 161.925 323.856 160.851 319.321C160.129 316.29 157.697 308.544 150.66 302.12C146.123 297.985 139.058 294.177 131.388 294.177Z" fill="#B3B3B3"/>
</g>
<g style="mix-blend-mode:multiply">
<path d="M135.255 322.762L135.217 322.325C135.543 322.289 168.347 318.562 215.439 300.4C243.288 289.65 269.438 276.381 293.162 260.955C321.336 242.626 343.484 223.05 358.991 202.776C374.757 182.14 382.406 160.729 379.977 144.053C378.801 136.019 375.144 128.192 369.679 122.012C364.471 116.125 357.434 111.178 348.768 107.303C341.153 103.901 332.64 101.423 322.751 99.7317C314.554 98.365 306.288 97.5965 298.003 97.431C290.289 97.2399 284.162 97.4931 280.236 97.6986C276.006 97.9208 273.668 98.1286 273.645 98.131L273.613 97.6914C273.637 97.6914 275.976 97.4836 280.217 97.259C284.16 97.0511 290.292 96.7979 298.023 96.9914C306.936 97.2136 315.048 97.9685 322.815 99.2969C332.726 100.995 341.263 103.48 348.912 106.894C357.628 110.791 364.708 115.772 369.954 121.706C375.476 127.951 379.174 135.864 380.362 143.987C382.81 160.798 375.127 182.333 359.287 203.068C343.751 223.375 321.569 242.987 293.356 261.342C269.609 276.78 243.438 290.065 215.566 300.821C168.427 319.002 135.578 322.731 135.255 322.762Z" fill="#B3B3B3"/>
</g>
<g style="mix-blend-mode:multiply">
<path d="M135.322 322.745L135.149 322.351C135.426 322.193 163.399 306.292 203.389 274.909C227.196 256.222 249.855 236.304 270.737 215.713C282.544 204.069 293.509 192.451 303.325 181.186C313.69 169.298 322.702 157.867 330.137 147.211C337.902 136.081 343.645 126.3 347.693 117.31C351.691 108.435 353.726 100.852 353.745 94.7765C353.758 89.2577 351.687 84.3674 348.203 81.6988C344.76 79.0708 339.742 77.807 333.285 77.9456C330.034 78.0396 326.793 78.3957 323.587 79.0111C320.344 79.606 316.972 80.4182 313.281 81.4981C307.181 83.2851 300.732 85.6359 293.566 88.6915C287.347 91.3458 282.34 93.7755 279.117 95.3809C275.637 97.1058 273.725 98.1116 273.706 98.1235L273.543 97.7246C273.562 97.7246 275.475 96.7044 278.958 94.9795C282.188 93.3789 287.207 90.9444 293.428 88.2902C300.607 85.2298 307.069 82.8718 313.184 81.0824C316.888 80.0002 320.27 79.1712 323.525 78.5858C326.749 77.9675 330.007 77.6098 333.276 77.5155C339.808 77.3841 344.91 78.6623 348.421 81.338C352.017 84.0878 354.149 89.1144 354.132 94.7789C354.113 100.926 352.063 108.576 348.038 117.513C343.975 126.527 338.217 136.332 330.438 147.484C322.994 158.153 313.962 169.597 303.596 181.497C293.773 192.771 282.802 204.394 270.986 216.047C250.094 236.648 227.413 256.575 203.605 275.272C163.596 306.671 135.602 322.587 135.322 322.745Z" fill="#B3B3B3"/>
</g>
<g style="mix-blend-mode:multiply">
<path d="M135.384 322.69L135.088 322.406C135.282 322.146 154.956 295.918 185.006 253.501C202.962 228.162 220.653 202.662 237.589 177.706C247.14 163.632 256.25 150.021 264.664 137.247C273.524 123.801 281.558 111.373 288.542 100.305C295.835 88.7443 301.684 79.1665 306.418 71.0246C308.789 66.9441 310.745 63.4561 312.401 60.3575C314.058 57.2589 315.284 54.7886 316.19 52.7412C317.505 49.762 317.734 47.7241 317.476 47.2774C317.463 47.2549 317.446 47.2367 317.425 47.2245C317.404 47.2123 317.381 47.2066 317.357 47.2081C316.752 47.2535 315.951 47.8245 314.931 48.6678C313.489 49.8997 312.108 51.2205 310.794 52.6241C306.83 56.7572 302.585 61.7814 299.332 65.6994C295.571 70.2243 291.63 75.1099 286.926 81.0802C283.007 86.0518 279.779 90.2302 277.408 93.3145C275.037 96.3988 273.77 98.0592 273.77 98.0592L273.476 97.7725C273.476 97.7725 274.745 96.1002 277.114 93.0254C279.483 89.9507 282.719 85.7627 286.632 80.7863C291.336 74.8137 295.281 69.9256 299.042 65.3984C302.301 61.4756 306.551 56.4418 310.525 52.3016C311.85 50.8869 313.243 49.555 314.696 48.3119C315.803 47.3968 316.628 46.8211 317.328 46.7685C317.419 46.7627 317.511 46.7841 317.593 46.8306C317.675 46.8771 317.745 46.9472 317.795 47.0337C318.239 47.791 317.71 50.2733 316.526 52.9371C315.616 54.9964 314.373 57.4978 312.719 60.5821C311.065 63.6663 309.1 67.1782 306.726 71.2635C301.988 79.4102 296.15 88.9927 288.84 100.558C281.86 111.629 273.823 124.059 264.96 137.507C256.567 150.284 247.459 163.89 237.907 177.985C220.97 202.944 203.277 228.449 185.319 253.787C155.25 296.198 135.578 322.43 135.384 322.69Z" fill="#B3B3B3"/>
</g>
<g style="mix-blend-mode:multiply">
<path d="M135.422 322.611L135.05 322.482C135.071 322.403 137.275 314.328 141.55 300.264C145.704 286.613 152.65 264.768 162.154 238.223C172.964 208.025 184.632 178.403 196.843 150.176C203.738 134.222 210.659 119.083 217.411 105.174C224.535 90.4954 231.443 77.2529 237.943 65.8117C244.733 53.8664 250.763 44.3579 256.377 36.7727C262.1 29.0417 266.68 24.1871 270.787 21.4827C274.341 19.1558 278.038 19.0124 279.988 21.122C281.994 23.2984 283.117 27.3932 283.423 33.6454C283.558 36.8241 283.52 40.009 283.311 43.1825C283.119 46.4675 282.791 49.9674 282.307 53.8783C281.884 57.3544 281.351 60.9547 280.697 64.8871C280.139 68.2485 279.517 71.6792 278.793 75.3703C277.427 82.3463 276.143 88.049 275.295 91.7305C274.375 95.725 273.833 97.9421 273.827 97.9612L273.452 97.8441C273.452 97.8202 274 95.6104 274.916 91.6206C275.762 87.9415 277.048 82.2436 278.413 75.2771C279.134 71.5884 279.756 68.1625 280.316 64.8059C280.968 60.8806 281.494 57.2875 281.922 53.8162C282.404 49.9149 282.732 46.4269 282.926 43.1491C283.131 39.9937 283.168 36.8273 283.036 33.6669C282.736 27.5318 281.651 23.5325 279.72 21.4373C277.896 19.4616 274.385 19.6336 270.984 21.8602C266.919 24.5312 262.373 29.3547 256.677 37.045C251.074 44.616 245.043 54.1005 238.275 66.0386C231.783 77.4726 224.879 90.7056 217.758 105.374C211.008 119.279 204.091 134.413 197.198 150.358C185.002 178.578 173.339 208.19 162.53 238.378C153.031 264.916 146.087 286.752 141.935 300.398C137.645 314.465 135.443 322.523 135.422 322.611Z" fill="#B3B3B3"/>
</g>
<g style="mix-blend-mode:multiply">
<path d="M135.041 322.568C135.012 322.21 132.08 285.997 137.019 230.59C139.959 197.726 145.002 165.779 152.007 135.639C155.977 118.56 160.512 102.462 165.485 87.7933C170.739 72.2883 176.45 58.4677 182.457 46.7159C188.657 34.5938 195.119 24.7748 201.663 17.5312C208.15 10.364 214.932 5.63128 221.277 3.8586C227.353 2.20701 233.755 3.18729 239.222 6.60601C244.443 9.89813 249.305 15.4288 253.675 23.0427C257.51 29.7321 260.833 37.6757 263.828 47.337C266.182 54.9223 268.181 63.069 269.941 72.243C271.464 80.1914 272.382 86.6729 272.941 90.8585C273.543 95.3619 273.812 97.8656 273.814 97.8895L273.427 97.942C273.427 97.9181 273.156 95.4192 272.556 90.923C271.999 86.7445 271.075 80.2726 269.56 72.3361C267.805 63.1813 265.81 55.0513 263.46 47.4899C260.469 37.862 257.159 29.9447 253.341 23.2888C249.007 15.737 244.189 10.2541 239.026 7.00021C233.647 3.63688 227.347 2.67361 221.37 4.30057C215.092 6.05414 208.372 10.751 201.936 17.8609C195.417 25.0758 188.976 34.8638 182.796 46.95C176.797 58.6827 171.094 72.4819 165.849 87.9629C160.882 102.617 156.352 118.701 152.384 135.766C145.384 165.88 140.344 197.814 137.406 230.645C132.463 285.994 135.399 322.167 135.43 322.528L135.041 322.568Z" fill="#B3B3B3"/>
</g>
<g style="mix-blend-mode:multiply">
<path d="M135.06 322.643C134.916 322.296 120.605 287.523 112.062 231.474C107.038 198.469 105.371 166.264 107.108 135.761C108.1 118.405 110.209 102.028 113.375 87.0864C116.732 71.2684 121.246 57.1682 126.796 45.1775C137.856 21.3085 154.748 5.07723 171.983 1.75883C188.223 -1.34694 207.37 6.00179 224.522 21.9225C231.912 28.791 238.89 36.9138 245.853 46.7687C251.501 54.8006 256.688 63.2321 261.383 72.0114C269.778 87.5905 273.768 97.7368 273.808 97.8371L273.45 98.0139C273.412 97.9136 269.431 87.7911 261.049 72.2408C256.364 63.4761 251.187 55.0597 245.549 47.0434C238.603 37.222 231.644 29.1255 224.274 22.2737C207.211 6.43182 188.181 -0.881078 172.048 2.20558C154.932 5.49531 138.146 21.6334 127.141 45.3926C121.605 57.3378 117.102 71.4046 113.754 87.201C110.594 102.118 108.487 118.469 107.497 135.799C105.763 166.272 107.427 198.44 112.445 231.412C120.984 287.38 135.27 322.11 135.413 322.454L135.06 322.643Z" fill="#B3B3B3"/>
</g>
<g style="mix-blend-mode:multiply">
<path d="M135.094 322.697C134.855 322.406 110.96 293.073 89.8122 240.968C77.4595 210.505 69.5889 180.286 66.4225 151.139C63.8165 127.067 63.3745 92.1081 76.0698 62.2664C86.1994 38.5191 105.93 20.8306 127.56 16.1122C138.546 13.7231 150.507 13.9142 163.114 16.6808C174.688 19.2251 186.721 23.9244 198.88 30.6496C217.916 41.1877 235.95 55.5985 254.003 74.7038C266.961 88.4241 273.713 97.6841 273.78 97.7773L273.478 98.0544C273.412 97.9636 266.673 88.7228 253.737 75.0263C235.711 55.9497 217.711 41.57 198.708 31.0438C186.58 24.3353 174.58 19.648 163.04 17.1132C150.482 14.3562 138.567 14.1651 127.634 16.5422C106.122 21.2367 86.5061 38.8345 76.4209 62.4694C63.7658 92.218 64.2079 127.079 66.8095 151.091C69.9717 180.185 77.8296 210.364 90.1675 240.784C111.286 292.813 135.141 322.107 135.38 322.399L135.094 322.697Z" fill="#B3B3B3"/>
</g>
<g style="mix-blend-mode:multiply">
<path d="M135.136 322.738C134.832 322.535 104.195 301.903 72.6876 258.36C56.259 235.638 42.633 207.609 35.2891 181.437C26.3376 149.555 26.4793 120.593 35.6973 97.6816C40.7643 85.2336 48.365 74.3149 57.8792 65.8164C67.4272 57.2755 79.5049 50.6124 92.8052 46.551C105.759 42.6019 120.135 40.889 135.532 41.4552C149.602 41.9784 164.406 44.4081 179.528 48.6749C238.241 65.2645 273.391 97.4236 273.738 97.7461L273.491 98.0854C273.144 97.7629 238.057 65.6659 179.433 49.1097C164.332 44.8524 149.556 42.4204 135.513 41.9043C120.148 41.3333 105.809 43.0463 92.8919 46.9859C79.6424 51.0305 67.6133 57.6673 58.1056 66.1724C48.646 74.6258 41.089 85.4845 36.0505 97.8632C26.8728 120.674 26.7437 149.527 35.6592 181.303C42.9905 207.416 56.5996 235.399 72.988 258.081C104.449 301.561 135.031 322.155 135.335 322.346L135.136 322.738Z" fill="#B3B3B3"/>
</g>
<g style="mix-blend-mode:multiply">
<path d="M135.189 322.762C134.853 322.666 101.078 312.981 62.723 282.05C40.7356 264.299 24.6285 244.57 14.8564 223.415C3.5782 198.966 2.11027 171.176 10.9264 149.077C15.7532 137.005 23.738 125.476 34.0115 115.74C44.4139 105.893 57.2785 97.5597 72.2138 90.9755C86.5124 84.6803 102.503 80.0862 119.738 77.322C135.39 74.8135 151.929 73.8459 168.873 74.4384C232.517 76.7056 273.306 97.5048 273.71 97.7126L273.548 98.114C273.144 97.9037 232.42 77.1428 168.861 74.878C151.939 74.2831 135.428 75.2507 119.789 77.7568C102.581 80.5114 86.6267 85.1056 72.3555 91.3864C57.4498 97.9515 44.6255 106.263 34.2611 116.08C24.032 125.772 16.0853 137.247 11.2817 149.261C2.51427 171.241 3.98009 198.882 15.2011 223.212C24.9458 244.307 41.0064 263.981 62.9514 281.691C101.236 312.575 134.948 322.241 135.291 322.334L135.189 322.762Z" fill="#B3B3B3"/>
</g>
<g style="mix-blend-mode:multiply">
<path d="M135.223 322.762C134.842 322.762 126.727 322.743 113.335 321.328C100.942 320.024 82.0623 317.386 61.3018 309.593C38.4303 300.993 21.549 288.997 11.1232 273.934C5.53281 265.838 2.04065 255.777 1.02324 244.867C-0.0281172 233.532 1.70177 222.089 6.02354 211.79C10.9942 199.964 18.9769 188.213 29.7559 176.886C40.4989 165.605 53.7928 154.969 69.2718 145.269C84.0252 136.031 100.502 127.815 118.247 120.839C134.659 114.424 151.432 109.257 168.455 105.372C194.472 99.4113 220.488 96.3867 245.799 96.3867H245.962C263.581 96.3987 273.554 97.684 273.651 97.6983L273.607 98.1331C273.508 98.1212 263.556 96.8382 245.962 96.8263H245.799C220.518 96.8263 194.522 99.8461 168.531 105.804C151.526 109.685 134.77 114.847 118.376 121.254C100.653 128.219 84.1944 136.427 69.46 145.654C54.0192 155.334 40.74 165.961 30.0203 177.208C19.3005 188.456 11.3221 200.203 6.37466 211.979C-2.10723 232.217 -0.0745391 257.015 11.4321 273.676C21.8092 288.67 38.6291 300.618 61.4287 309.187C82.1469 316.966 100.997 319.599 113.373 320.894C126.746 322.298 134.845 322.327 135.223 322.327H135.236V322.762H135.223Z" fill="#B3B3B3"/>
</g>
<g style="mix-blend-mode:multiply">
<path d="M61.7712 338.157C55.1972 338.157 49.3275 337.584 43.9719 336.418C35.7523 334.631 29.2164 331.472 24.5482 327.033C19.5733 322.298 16.5105 315.286 16.1149 307.794C15.9034 303.685 16.3793 299.194 17.5215 294.416C18.6933 289.516 20.5907 284.253 23.1543 278.77C25.7623 273.196 29.1064 267.302 33.0956 261.253C37.471 254.68 42.167 248.387 47.1616 242.404C57.7692 229.589 70.6888 216.449 85.5649 203.354C112.618 179.538 144.834 156.961 178.728 138.038C208.533 121.417 233.41 111.204 249.03 105.561C255.327 103.286 261.318 101.306 267.344 99.4997C271.363 98.2908 273.558 97.7079 273.579 97.7031L273.67 98.1308C273.647 98.1308 271.466 98.7185 267.443 99.925C261.425 101.729 255.439 103.709 249.149 105.979C233.543 111.617 208.683 121.823 178.899 138.434C145.029 157.334 112.836 179.896 85.8039 203.703C70.9447 216.79 58.0379 229.909 47.445 242.693C42.4642 248.665 37.7803 254.946 33.415 261.504C29.4406 267.534 26.1071 273.409 23.5075 278.966C20.9566 284.417 19.0656 289.649 17.9044 294.518C16.7749 299.249 16.3053 303.707 16.5126 307.768C16.8912 315.141 19.9138 322.038 24.8083 326.697C29.4237 331.088 35.9004 334.213 44.0565 335.988C51.2481 337.548 59.362 338.047 68.8718 337.512C76.7171 337.067 84.9663 335.952 94.0933 334.095C101.016 332.688 108.022 330.942 115.512 328.756C127.858 325.151 135.115 322.368 135.183 322.339L135.31 322.755C135.238 322.783 127.97 325.571 115.607 329.181C108.109 331.37 101.092 333.121 94.1589 334.53C85.017 336.389 76.7509 337.507 68.8888 337.951C66.4239 338.09 64.0513 338.158 61.7712 338.157Z" fill="#B3B3B3"/>
</g>
<g style="mix-blend-mode:multiply">
<path d="M57.2363 376.566C56.2181 376.587 55.2044 376.407 54.2412 376.033C51.5824 374.939 50.3218 370.601 51.2461 365.712C51.8024 362.769 52.8896 359.365 54.5648 355.306C56.2866 351.142 58.5118 346.567 61.3736 341.318C64.282 335.981 67.6494 330.311 71.6661 323.988C75.6828 317.664 80.2157 310.91 85.2033 303.802C90.1909 296.695 95.6904 289.186 101.535 281.474C107.326 273.829 113.536 265.886 119.99 257.866C143.783 228.296 171.029 197.423 198.784 168.551C223.054 143.318 242.6 125.003 254.723 114.08C259.588 109.692 264.192 105.654 268.778 101.736C271.834 99.1249 273.491 97.7488 273.508 97.7368L273.738 98.0904C273.721 98.1047 272.067 99.4784 269.013 102.087C264.431 106.003 259.835 110.038 254.966 114.424C242.848 125.34 223.31 143.647 199.047 168.871C171.302 197.724 144.052 228.597 120.277 258.16C113.826 266.175 107.62 274.116 101.831 281.756C95.9907 289.466 90.4997 296.975 85.5079 304.075C80.516 311.175 75.9642 317.96 71.9707 324.241C67.9518 330.558 64.5993 336.22 61.693 341.547C58.8418 346.779 56.6166 351.342 54.9075 355.487C53.2429 359.518 52.1578 362.893 51.6163 365.803C50.7343 370.471 51.8891 374.6 54.366 375.615C57.0354 376.714 60.976 376.055 66.7652 373.558C71.8036 371.379 77.4617 368.135 84.5709 363.347C90.339 359.46 96.5132 354.907 103.443 349.422C108.667 345.288 114.018 340.857 119.833 335.876C129.417 327.648 135.048 322.428 135.105 322.375L135.352 322.717C135.295 322.767 129.658 327.992 120.068 336.227C114.26 341.21 108.895 345.644 103.667 349.782C96.7289 355.277 90.5526 359.833 84.7697 363.725C77.6415 368.527 71.9644 371.781 66.9027 373.967C62.8796 375.713 59.7174 376.566 57.2363 376.566Z" fill="#B3B3B3"/>
</g>
<g style="mix-blend-mode:multiply">
<path d="M97.6448 415.163C97.4572 415.165 97.2717 415.118 97.1033 415.025C96.9641 414.947 96.8427 414.834 96.7488 414.694C96.6548 414.554 96.5908 414.392 96.5618 414.22C96.3651 413.116 96.6802 411.539 97.0504 410.001C97.6454 407.638 98.3514 405.314 99.1656 403.036C100.081 400.394 101.19 397.434 102.55 393.991C103.806 390.816 105.207 387.412 106.831 383.585C109.629 376.993 112.836 369.747 116.631 361.433C119.503 355.143 122.553 348.616 125.925 341.475C131.534 329.635 135.02 322.511 135.058 322.442L135.399 322.654C135.365 322.724 131.875 329.845 126.27 341.683C122.885 348.822 119.85 355.348 116.978 361.634C113.183 369.946 109.978 377.189 107.182 383.776C105.56 387.598 104.162 390.998 102.905 394.171C101.545 397.609 100.439 400.561 99.5209 403.197C98.708 405.462 98.0019 407.775 97.4057 410.125C97.0483 411.611 96.7437 413.128 96.9256 414.141C96.9424 414.248 96.9814 414.349 97.0395 414.436C97.0976 414.523 97.1731 414.593 97.2598 414.64C97.3966 414.707 97.5452 414.739 97.6944 414.732C97.8435 414.725 97.9893 414.679 98.1207 414.599C99.0091 414.134 100.092 413.113 101.74 411.19C103.387 409.267 105.336 406.72 107.764 403.28C110.241 399.773 112.99 395.671 116.17 390.733C119.423 385.685 122.906 380.106 126.817 373.685C130.684 367.334 134.921 360.234 139.405 352.582C143.864 344.97 148.6 336.752 153.486 328.161C158.327 319.644 163.383 310.64 168.503 301.404C187.4 267.362 207.4 229.923 226.341 193.124C233.797 178.637 241.008 164.403 247.776 150.819C252.925 140.484 257.853 130.452 262.422 120.996C265.366 114.909 268.165 109.051 270.743 103.59C272.53 99.8007 273.457 97.813 273.457 97.813L273.801 98.0184C273.801 98.0184 272.875 100.006 271.086 103.795C268.507 109.259 265.709 115.117 262.764 121.209C258.194 130.665 253.265 140.699 248.117 151.034C241.348 164.621 234.133 178.857 226.677 193.347C207.734 230.138 187.739 267.591 168.857 301.623C163.729 310.867 158.674 319.871 153.839 328.381C148.955 336.981 144.217 345.193 139.756 352.807C135.27 360.452 131.035 367.566 127.164 373.919C123.251 380.343 119.761 385.924 116.512 390.977C113.329 395.917 110.575 400.026 108.096 403.538C105.657 406.988 103.734 409.511 102.049 411.479C100.363 413.448 99.2375 414.502 98.3047 414.979C98.0994 415.095 97.8741 415.158 97.6448 415.163Z" fill="#B3B3B3"/>
</g>
<g style="mix-blend-mode:multiply">
<path d="M154.615 439.9C151.571 439.9 148.693 438.92 146.406 437.004C142.685 433.874 139.625 428.356 137.311 420.603C135.282 413.809 133.882 405.676 133.025 395.74C132.323 387.56 132.038 378.723 132.156 368.718C132.245 361.159 132.56 353.373 133.118 344.916C134.043 330.963 135.043 322.602 135.054 322.518L135.439 322.578C135.439 322.659 134.43 331.011 133.508 344.949C132.949 353.397 132.634 361.173 132.545 368.723C132.429 378.711 132.712 387.534 133.415 395.697C134.261 405.6 135.663 413.701 137.681 420.462C139.969 428.129 142.986 433.576 146.641 436.653C150.399 439.809 155.863 440.346 160.899 438.053C163.77 436.746 166.822 434.596 169.995 431.662C173.254 428.645 176.676 424.748 180.169 420.082C184.102 414.753 187.757 409.169 191.115 403.359C194.854 396.964 198.672 389.741 202.465 381.905C206.257 374.069 210.067 365.512 213.806 356.452C217.499 347.503 221.176 337.935 224.731 328.023C237.816 291.494 249.329 250.24 258.024 208.718C261.459 192.31 264.41 176.036 266.798 160.344C268.623 148.361 270.117 136.654 271.261 125.517C271.999 118.326 272.575 111.562 273.023 104.835C273.321 100.345 273.433 97.9278 273.446 97.9062L273.835 97.9301C273.835 97.954 273.719 100.374 273.412 104.87C272.966 111.603 272.388 118.373 271.648 125.569C270.504 136.707 269 148.43 267.177 160.416C264.789 176.117 261.836 192.401 258.399 208.816C249.699 250.359 238.18 291.637 225.087 328.185C221.529 338.116 217.851 347.692 214.155 356.646C210.414 365.724 206.594 374.287 202.801 382.128C199.009 389.968 195.186 397.205 191.436 403.61C188.07 409.432 184.406 415.028 180.463 420.369C176.956 425.054 173.514 428.97 170.236 432.006C167.038 434.966 163.943 437.14 161.037 438.457C158.997 439.396 156.817 439.886 154.615 439.9Z" fill="#B3B3B3"/>
</g>
<g style="mix-blend-mode:multiply">
<path d="M211.901 444.776C206.77 444.759 201.694 443.589 196.967 441.335C183.523 434.942 171.063 420.496 159.931 398.397C149.875 378.42 144.067 358.815 140.56 345.804C136.699 331.455 135.06 322.681 135.045 322.592L135.426 322.504C135.443 322.59 137.08 331.343 140.926 345.678C144.42 358.667 150.232 378.24 160.263 398.177C171.353 420.192 183.741 434.577 197.111 440.941C204.688 444.525 213.007 445.313 220.545 443.132C228.75 440.743 237.021 434.789 244.447 425.89C248.318 421.253 252.062 415.739 255.588 409.504C259.373 402.718 262.727 395.637 265.624 388.315C268.89 380.067 271.749 371.621 274.186 363.015C276.725 354.094 279.03 344.526 281.006 334.585C284.813 315.413 287.491 294.726 288.959 273.098C290.284 253.279 290.598 233.389 289.9 213.529C288.591 176.021 283.918 145.85 280.23 127.143C276.526 108.382 273.461 98.0996 273.429 97.9969L273.797 97.856C273.827 97.9563 276.9 108.258 280.608 127.045C284.301 145.768 288.98 175.969 290.289 213.51C290.988 233.387 290.673 253.293 289.346 273.129C287.88 294.779 285.2 315.487 281.387 334.678C279.407 344.636 277.11 354.216 274.559 363.149C272.117 371.77 269.252 380.232 265.977 388.494C263.079 395.831 259.722 402.925 255.932 409.723C252.4 415.983 248.637 421.518 244.747 426.174C237.26 435.136 228.926 441.142 220.649 443.543C217.79 444.365 214.851 444.78 211.901 444.776Z" fill="#B3B3B3"/>
</g>
<g style="mix-blend-mode:multiply">
<path d="M255.97 429.101C251.268 429.101 246.578 428.549 241.976 427.452C223.048 422.913 203.675 410.81 184.397 391.442C171.2 378.176 159.116 362.678 147.451 344.058C139.263 330.989 135.107 322.738 135.067 322.656L135.405 322.439C135.447 322.52 139.595 330.755 147.768 343.804C159.417 362.396 171.482 377.87 184.655 391.108C203.884 410.426 223.196 422.507 242.057 427.018C263.57 432.142 286.069 425.042 300.774 408.483C308.943 399.271 315.875 386.654 320.82 371.995C325.824 357.15 329.008 340.015 330.283 321.068C331.499 302.961 330.952 283.502 328.652 263.233C326.567 244.862 323.06 226.017 318.233 207.224C300.351 137.689 273.742 98.4292 273.476 98.0517L273.782 97.7817C274.049 98.1712 300.696 137.488 318.607 207.105C323.441 225.921 326.952 244.788 329.039 263.181C331.341 283.488 331.891 302.968 330.672 321.104C329.403 340.097 326.201 357.271 321.184 372.158C316.219 386.872 309.258 399.543 301.051 408.799C289.433 421.881 272.977 429.101 255.97 429.101Z" fill="#B3B3B3"/>
</g>
<g style="mix-blend-mode:multiply">
<path d="M280.494 396.512C279.068 396.512 277.629 396.488 276.177 396.438C252.529 395.635 226.108 388.17 203.69 375.954C159.766 351.987 135.335 322.989 135.094 322.698L135.378 322.397C135.619 322.688 160.005 351.629 203.859 375.558C226.231 387.742 252.595 395.198 276.198 395.999C304.541 396.983 327.553 388.506 342.807 371.554C351.211 362.191 357.795 350.052 361.844 336.468C365.947 322.686 367.69 307.159 367.018 290.321C366.37 274.169 363.513 257.049 358.521 239.434C353.969 223.384 347.681 207.074 339.835 190.955C309.819 129.366 273.878 98.3938 273.518 98.0904L273.753 97.7368C274.112 98.045 310.117 129.065 340.17 190.745C348.028 206.888 354.324 223.236 358.885 239.3C363.887 256.948 366.753 274.107 367.403 290.3C368.075 307.193 366.326 322.772 362.208 336.607C358.136 350.262 351.518 362.454 343.07 371.864C328.521 388.036 306.951 396.512 280.494 396.512Z" fill="#B3B3B3"/>
</g>
<g style="mix-blend-mode:multiply">
<path d="M264.655 359.231C248.279 359.217 231.941 357.443 215.862 353.934C166.289 343.035 135.443 322.938 135.139 322.738L135.335 322.358C135.64 322.559 166.428 342.619 215.936 353.504C263.257 363.88 331.191 361.526 366.897 320.743C383.131 302.156 391.198 273.884 387.952 246.962C386.3 233.311 382.205 219.237 375.783 205.127C369.892 192.197 362.089 179.342 352.588 166.919C337.748 147.524 320.109 130.443 298.659 114.689C283.375 103.461 273.634 98.1664 273.539 98.1139L273.708 97.7173C273.804 97.7698 283.567 103.083 298.879 114.321C320.353 130.089 338.01 147.207 352.884 166.642C362.402 179.089 370.229 191.966 376.13 204.936C382.571 219.089 386.68 233.213 388.339 246.911C391.6 273.968 383.491 302.381 367.174 321.063C350.746 339.827 326.823 351.858 296.068 356.822C285.66 358.459 275.163 359.264 264.655 359.231Z" fill="#B3B3B3"/>
</g>
</svg>
