<svg width="40" height="40" viewBox="0 0 40 40" fill="none" xmlns="http://www.w3.org/2000/svg">
<g clip-path="url(#clip0_390_40)">
<path d="M37.3396 20.5182C37.1786 20.1889 37.1786 19.8113 37.3396 19.4821L38.8314 16.4301C39.662 14.7308 39.0039 12.7055 37.3331 11.819L34.3324 10.2268C34.0086 10.0551 33.7867 9.74946 33.7233 9.38861L33.1364 6.04261C32.8097 4.17965 31.0864 2.92779 29.214 3.19271L25.8505 3.66848C25.4874 3.71973 25.1284 3.60302 24.8651 3.34825L22.4236 0.986391C21.0642 -0.328758 18.9345 -0.328836 17.5751 0.986391L15.1336 3.34849C14.8702 3.60333 14.5112 3.71981 14.1482 3.66872L10.7847 3.19294C8.91167 2.92786 7.18903 4.17989 6.86223 6.04285L6.27536 9.38869C6.212 9.74962 5.99005 10.0552 5.66638 10.227L2.66561 11.8191C0.994843 12.7055 0.336722 14.7311 1.16734 16.4304L2.65913 19.4822C2.82007 19.8115 2.82007 20.1892 2.65913 20.5184L1.16726 23.5702C0.336644 25.2695 0.994765 27.2949 2.66554 28.1814L5.6663 29.7736C5.99005 29.9453 6.212 30.2509 6.27536 30.6118L6.86223 33.9578C7.15973 35.6537 8.61394 36.8431 10.2853 36.8429C10.4499 36.8429 10.6169 36.8313 10.7848 36.8076L14.1483 36.3318C14.511 36.2803 14.8702 36.3973 15.1337 36.652L17.5751 39.0139C18.255 39.6716 19.127 40.0003 19.9993 40.0002C20.8714 40.0002 21.744 39.6714 22.4235 39.0139L24.8651 36.652C25.1285 36.3973 25.4876 36.2809 25.8505 36.3318L29.214 36.8076C31.0872 37.0726 32.8097 35.8206 33.1364 33.9577L33.7234 30.6118C33.7868 30.2509 34.0087 29.9454 34.3324 29.7736L37.3331 28.1814C39.0039 27.295 39.662 25.2695 38.8314 23.5702L37.3396 20.5182ZM36.2518 26.1434L33.2511 27.7355C32.2943 28.2433 31.6382 29.1462 31.4511 30.2131L30.8642 33.559C30.7537 34.1893 30.1709 34.6127 29.5371 34.5232L26.1736 34.0474C25.1009 33.8955 24.0396 34.2407 23.261 34.9938L20.8195 37.3556C20.3596 37.8004 19.6391 37.8004 19.1791 37.3556L16.7376 34.9937C16.0797 34.3572 15.2195 34.0123 14.3216 34.0123C14.157 34.0123 13.9912 34.0239 13.8251 34.0474L10.4616 34.5231C9.82831 34.6127 9.24511 34.1892 9.13448 33.5589L8.54753 30.2129C8.36035 29.1461 7.70426 28.243 6.74747 27.7355L3.7467 26.1433C3.18139 25.8434 2.95874 25.1581 3.23975 24.5832L4.73162 21.5313C5.20724 20.5582 5.20724 19.4421 4.73162 18.4689L3.23975 15.417C2.95874 14.8421 3.18139 14.1569 3.7467 13.8569L6.74747 12.2648C7.70418 11.757 8.36035 10.8541 8.54745 9.7872L9.13433 6.44128C9.24495 5.81097 9.8276 5.38754 10.4614 5.47707L13.8249 5.95285C14.8972 6.10464 15.959 5.75957 16.7375 5.00652L19.179 2.64466C19.6389 2.19982 20.3594 2.19982 20.8194 2.64466L23.2609 5.00652C24.0394 5.75964 25.101 6.10464 26.1734 5.95285L29.5369 5.47707C30.1703 5.38746 30.7535 5.81097 30.864 6.44128L31.4509 9.78728C31.6381 10.8541 32.2942 11.7572 33.251 12.2648L36.2517 13.8569C36.8171 14.1569 37.0397 14.8421 36.7587 15.417L35.2668 18.4689C34.7912 19.4419 34.7912 20.5582 35.2668 21.5312L36.7587 24.583C37.0398 25.1581 36.8171 25.8434 36.2518 26.1434Z" fill="#1D4734"/>
<path d="M28.4292 11.5712C27.9788 11.1208 27.2483 11.1208 26.7978 11.5712L11.5722 26.7969C11.1218 27.2474 11.1218 27.9778 11.5722 28.4283C11.7975 28.6535 12.0927 28.7661 12.3878 28.7661C12.683 28.7661 12.9783 28.6536 13.2035 28.4283L28.4291 13.2026C28.8797 12.7521 28.8797 12.0218 28.4292 11.5712Z" fill="#1D4734"/>
<path d="M15.3858 9.61816C13.0537 9.61816 11.1562 11.5156 11.1562 13.8477C11.1562 16.1799 13.0537 18.0773 15.3858 18.0773C17.718 18.0773 19.6154 16.1799 19.6154 13.8477C19.6154 11.5156 17.718 9.61816 15.3858 9.61816ZM15.3858 15.7702C14.3258 15.7702 13.4633 14.9078 13.4633 13.8477C13.4633 12.7876 14.3258 11.9252 15.3858 11.9252C16.4459 11.9252 17.3084 12.7876 17.3084 13.8477C17.3083 14.9078 16.4459 15.7702 15.3858 15.7702Z" fill="#1D4734"/>
<path d="M24.6144 21.9224C22.2822 21.9224 20.3848 23.8198 20.3848 26.1519C20.3848 28.4841 22.2822 30.3815 24.6144 30.3815C26.9465 30.3815 28.8439 28.4841 28.8439 26.1519C28.8439 23.8198 26.9465 21.9224 24.6144 21.9224ZM24.6144 28.0744C23.5543 28.0744 22.6918 27.212 22.6918 26.1519C22.6918 25.0919 23.5542 24.2295 24.6144 24.2295C25.6744 24.2295 26.5368 25.0919 26.5368 26.1519C26.5368 27.212 25.6744 28.0744 24.6144 28.0744Z" fill="#1D4734"/>
</g>
<defs>
<clipPath id="clip0_390_40">
<rect width="40" height="40" fill="white"/>
</clipPath>
</defs>
</svg>
