<svg width="1175" height="934" viewBox="0 0 1175 934" fill="none" xmlns="http://www.w3.org/2000/svg">
<g opacity="0.12">
<mask id="mask0_167_255" style="mask-type:alpha" maskUnits="userSpaceOnUse" x="-38" y="-216" width="1213" height="1150">
<path d="M1174.5 370C1174.5 693.363 916.655 934 577 934C237.345 934 -38 682.488 -38 359.125C-38 35.7622 219.845 -215.5 559.5 -215.5C899.155 -215.5 1174.5 46.6373 1174.5 370Z" fill="url(#paint0_radial_167_255)"/>
</mask>
<g mask="url(#mask0_167_255)">
<line x1="112" y1="-48" x2="112" y2="804" stroke="black" stroke-width="2"/>
<line x1="202" y1="-48" x2="202" y2="804" stroke="black" stroke-width="2"/>
<line x1="292" y1="-48" x2="292" y2="804" stroke="black" stroke-width="2"/>
<line x1="382" y1="-48" x2="382" y2="804" stroke="black" stroke-width="2"/>
<line x1="472" y1="-48" x2="472" y2="804" stroke="black" stroke-width="2"/>
<line x1="562" y1="-48" x2="562" y2="804" stroke="black" stroke-width="2"/>
<line x1="652" y1="-48" x2="652" y2="804" stroke="black" stroke-width="2"/>
<line x1="742" y1="-48" x2="742" y2="804" stroke="black" stroke-width="2"/>
<line x1="832" y1="-48" x2="832" y2="804" stroke="black" stroke-width="2"/>
<line x1="922" y1="-48" x2="922" y2="804" stroke="black" stroke-width="2"/>
<line x1="1012" y1="-48" x2="1012" y2="804" stroke="black" stroke-width="2"/>
<line x1="1102" y1="-48" x2="1102" y2="804" stroke="black" stroke-width="2"/>
</g>
</g>
<defs>
<radialGradient id="paint0_radial_167_255" cx="0" cy="0" r="1" gradientUnits="userSpaceOnUse" gradientTransform="translate(663.223 342.792) rotate(90) scale(428.864 450.472)">
<stop stop-color="#D9D9D9" stop-opacity="0.46"/>
<stop offset="1" stop-color="#D9D9D9" stop-opacity="0"/>
</radialGradient>
</defs>
</svg>
