<svg width="20" height="19" viewBox="0 0 20 19" fill="none" xmlns="http://www.w3.org/2000/svg">
<g clip-path="url(#clip0_16_1497)">
<path d="M3.16329 10.7969C3.0433 10.7956 2.95299 10.8247 2.89237 10.8841C2.83175 10.9434 2.80082 11.0331 2.79957 11.1531L2.72918 17.9327C2.72794 18.0527 2.7569 18.153 2.81606 18.2337C2.87523 18.3143 2.96481 18.3552 3.0848 18.3565L16.5841 18.4966C16.6641 18.4975 16.7445 18.4583 16.8253 18.3791C16.9061 18.3 16.9472 18.2004 16.9484 18.0804L17.0057 12.5607C17.007 12.4407 16.9679 12.3503 16.8885 12.2894C16.8092 12.2286 16.7195 12.1977 16.6195 12.1967C16.5195 12.1956 16.4392 12.2248 16.3786 12.2842C16.3179 12.3435 16.287 12.4332 16.2858 12.5532L16.2322 17.7129L3.45288 17.5802L3.51953 11.1606C3.52078 11.0406 3.48171 10.9502 3.40234 10.8894C3.32297 10.8285 3.24328 10.7977 3.16329 10.7969ZM4.64701 12.3724C4.52702 12.3711 4.43671 12.4002 4.37609 12.4596C4.31547 12.5189 4.28454 12.6086 4.28329 12.7286L4.2291 17.9483C4.22785 18.0683 4.25681 18.1686 4.31598 18.2492C4.37515 18.3299 4.46473 18.3708 4.58472 18.372L8.7245 18.415C8.80449 18.4158 8.8849 18.3767 8.96573 18.2975C9.04656 18.2184 9.08759 18.1188 9.08884 17.9988L9.1312 13.919C9.13203 13.839 9.09286 13.7586 9.01369 13.6778C8.93453 13.5969 8.84495 13.556 8.74496 13.555C8.64496 13.5539 8.55455 13.593 8.47372 13.6722C8.3929 13.7513 8.35207 13.8309 8.35124 13.9109L8.31262 17.6307L4.9528 17.5958L4.99952 13.0961L8.77931 13.1353C8.85931 13.1361 8.93962 13.107 9.02024 13.0478C9.10085 12.9886 9.14179 12.8991 9.14303 12.7791C9.14428 12.6591 9.10521 12.5687 9.02584 12.5078C8.94647 12.447 8.86679 12.4162 8.78679 12.4153L4.64701 12.3724ZM10.6467 12.4347C10.5267 12.4334 10.4364 12.4625 10.3758 12.5218C10.3151 12.5812 10.2842 12.6709 10.283 12.7909L10.2481 16.1507C10.2468 16.2707 10.2759 16.361 10.3353 16.4216C10.3947 16.4823 10.4843 16.5132 10.6043 16.5144L15.1041 16.5612C15.1841 16.562 15.2644 16.5328 15.345 16.4736C15.4256 16.4145 15.4666 16.3249 15.4678 16.2049L15.4909 13.985C15.4917 13.905 15.4525 13.8246 15.3734 13.7438C15.2942 13.663 15.2046 13.622 15.1046 13.621C15.0046 13.62 14.9242 13.6591 14.8634 13.7385C14.8026 13.8179 14.7717 13.8976 14.7709 13.9776L14.7516 15.8375L10.9718 15.7982L10.9992 13.1584L15.139 13.2013C15.219 13.2022 15.2993 13.173 15.3799 13.1138C15.4605 13.0547 15.5014 12.9651 15.5027 12.8451C15.5039 12.7251 15.4649 12.6347 15.3855 12.5739C15.3061 12.513 15.2264 12.4822 15.1464 12.4814L10.6467 12.4347ZM9.90847 8.40677C9.46849 8.4022 9.09685 8.55836 8.79354 8.87522C8.49024 9.19209 8.3363 9.57051 8.33173 10.0105C8.32716 10.4505 8.47321 10.832 8.76987 11.1551C9.06653 11.4782 9.43485 11.642 9.87483 11.6466C10.3148 11.6512 10.6964 11.4951 11.0198 11.1785C11.3431 10.8618 11.507 10.4835 11.5116 10.0435C11.5128 9.92351 11.4737 9.8331 11.3944 9.77227C11.315 9.71145 11.2253 9.68051 11.1253 9.67947C11.0253 9.67844 10.935 9.7075 10.8544 9.76667C10.7738 9.82583 10.7328 9.91541 10.7316 10.0354C10.7291 10.2754 10.647 10.4746 10.4854 10.6329C10.3237 10.7912 10.1229 10.8691 9.88293 10.8666C9.64294 10.8641 9.44378 10.7821 9.28545 10.6204C9.12712 10.4588 9.0492 10.258 9.05169 10.018C9.05418 9.77798 9.13626 9.57882 9.29791 9.42049C9.45956 9.26216 9.66038 9.18424 9.90037 9.18673C10.1404 9.18922 10.3395 9.27129 10.4978 9.43295C10.577 9.51377 10.6666 9.55471 10.7666 9.55574C10.8666 9.55678 10.957 9.51772 11.0378 9.43855C11.1186 9.35939 11.1596 9.26981 11.1606 9.16981C11.1617 9.06982 11.1226 8.97941 11.0434 8.89858C10.7268 8.57528 10.3484 8.41134 9.90847 8.40677ZM12.3129 13.772C12.1529 13.7704 12.0521 13.8493 12.0104 14.0089L11.5842 14.6045C11.543 14.7241 11.5318 14.834 11.5508 14.9342C11.5697 15.0344 11.629 15.105 11.7286 15.146C11.8282 15.1871 11.9281 15.1981 12.0283 15.1791C12.1285 15.1602 12.199 15.1109 12.2398 15.0313L12.6066 14.3751C12.6875 14.2959 12.7084 14.2062 12.6694 14.1057C12.6305 14.0053 12.5812 13.9348 12.5216 13.8942C12.4621 13.8536 12.3925 13.8129 12.3129 13.772ZM13.8128 13.7876C13.6528 13.7859 13.552 13.8649 13.5103 14.0245L13.0841 14.6201C13.0429 14.7397 13.0317 14.8495 13.0507 14.9497C13.0697 15.0499 13.1289 15.1206 13.2285 15.1616C13.3281 15.2026 13.428 15.2137 13.5282 15.1947C13.6284 15.1758 13.6989 15.1265 13.7397 15.0469L14.1066 14.3907C14.1874 14.3115 14.2083 14.2217 14.1694 14.1213C14.1304 14.0209 14.0811 13.9504 14.0216 13.9098C13.962 13.8692 13.8924 13.8284 13.8128 13.7876ZM16.1635 1.21133C15.5235 1.20468 14.9611 1.43885 14.4761 1.91384C13.9912 2.38884 13.7452 2.96631 13.7381 3.64628C13.731 4.32624 13.9651 4.8987 14.4403 5.36366C14.9155 5.82862 15.4831 6.06452 16.143 6.07137C16.803 6.07823 17.3754 5.85416 17.8601 5.39917C18.3449 4.94417 18.5908 4.3767 18.5978 3.69673C18.6049 3.01677 18.3709 2.43431 17.8959 1.94935C17.4209 1.46439 16.8435 1.21839 16.1635 1.21133ZM16.1554 1.99128C16.6354 1.99627 17.0437 2.16052 17.3804 2.48403C17.717 2.80754 17.8829 3.20928 17.8779 3.68926C17.8729 4.16923 17.6987 4.56745 17.3554 4.8839C17.0121 5.20035 16.6105 5.35619 16.1505 5.35141C15.6905 5.34664 15.2922 5.18249 14.9556 4.85898C14.6189 4.53547 14.4531 4.13373 14.4581 3.65375C14.463 3.17378 14.6372 2.77556 14.9805 2.45911C15.3238 2.14266 15.7154 1.98672 16.1554 1.99128ZM3.29118 4.25785C3.21119 4.25702 3.13088 4.28619 3.05026 4.34535C2.96964 4.40452 2.92871 4.4941 2.92747 4.61409L2.88324 8.87386C2.88241 8.95386 2.92158 9.03427 3.00074 9.1151C3.07991 9.19592 3.16949 9.23685 3.26948 9.23789C3.36947 9.23893 3.44989 9.19976 3.51071 9.12039C3.57154 9.04102 3.60237 8.96133 3.6032 8.88134L3.64369 4.98155L5.14361 4.99712L5.12056 7.217C5.11932 7.33699 5.15827 7.4374 5.23744 7.51823C5.3166 7.59906 5.40618 7.63999 5.50618 7.64103C5.60617 7.64207 5.69658 7.603 5.77741 7.52384C5.85824 7.44467 5.89927 7.34509 5.90052 7.2251L5.9273 4.64524C5.92855 4.52524 5.88949 4.43483 5.81011 4.37401C5.73074 4.31318 5.65106 4.28235 5.57106 4.28152L3.29118 4.25785ZM2.58555 2.87045C2.46556 2.8692 2.36515 2.90816 2.28432 2.98733C2.20349 3.06649 2.16267 3.14607 2.16184 3.22607L2.14751 4.60599C2.14668 4.68599 2.18584 4.7664 2.26501 4.84723C2.34418 4.92805 2.44375 4.96909 2.56375 4.97034L6.28355 5.00896C6.40354 5.0102 6.49395 4.97114 6.55478 4.89177C6.61561 4.81239 6.64643 4.73271 6.64727 4.65271L6.66159 3.27279C6.66242 3.19279 6.63326 3.11249 6.57409 3.03187C6.51492 2.95125 6.42534 2.91032 6.30535 2.90907L2.58555 2.87045ZM2.93743 3.65414L5.93727 3.68529L5.93104 4.28526L2.9312 4.25411L2.93743 3.65414ZM6.35577 15.3903C6.35453 15.5103 6.30339 15.6197 6.20235 15.7187C6.10132 15.8176 5.99081 15.8665 5.87082 15.8653C5.75082 15.864 5.64135 15.8129 5.54239 15.7118C5.44343 15.6108 5.39468 15.4903 5.39614 15.3503C5.39759 15.2103 5.44873 15.1008 5.54955 15.0219C5.65038 14.9429 5.76079 14.9041 5.88078 14.9053C6.00078 14.9066 6.11035 14.9477 6.20952 15.0287C6.30868 15.1098 6.35743 15.2303 6.35577 15.3903ZM9.89145 4.26637C9.69146 4.2643 9.51085 4.32243 9.34961 4.44076L1.79644 9.52261C1.63521 9.64095 1.53345 9.8099 1.49117 10.0295C1.44888 10.249 1.48691 10.4394 1.60524 10.6007L2.01899 11.205C2.13732 11.3663 2.29628 11.4679 2.49585 11.51C2.69542 11.5521 2.89583 11.5141 3.09706 11.3962L9.92591 6.72686L16.7163 11.5376C16.8751 11.6593 17.0646 11.7012 17.2851 11.6635C17.5055 11.6258 17.6765 11.5276 17.7981 11.3688L18.2243 10.7732C18.346 10.6145 18.388 10.4249 18.3503 10.2045C18.3125 9.98411 18.2143 9.81308 18.0556 9.69142L10.6095 4.45384C10.4108 4.33177 10.1714 4.26928 9.89145 4.26637ZM9.94397 4.98696C10.024 4.98779 10.1038 5.00862 10.1833 5.04945L17.5687 10.3464L17.1425 10.942L10.1734 6.00939C10.0146 5.88774 9.87463 5.88629 9.75339 6.00503L2.62332 10.7913L2.20957 10.1869L9.76336 5.04509C9.80377 5.0055 9.86398 4.98613 9.94397 4.98696Z" fill="#1A1A1A"/>
</g>
<defs>
<clipPath id="clip0_16_1497">
<rect width="18" height="18" fill="white" transform="matrix(0.999946 0.010382 0.010382 -0.999946 0.921143 18.6943)"/>
</clipPath>
</defs>
</svg>
