<svg width="40" height="40" viewBox="0 0 40 40" fill="none" xmlns="http://www.w3.org/2000/svg">
<path d="M37.7841 16.6531C36.9855 16.1596 36.0966 16.0591 35.3125 16.1363V15.3125C35.3125 6.8907 28.4208 0 20 0C11.5782 0 4.6875 6.89172 4.6875 15.3125V16.1363C3.90344 16.0591 3.01437 16.1596 2.21586 16.6531C0.745469 17.5619 0 19.4765 0 22.3438C0 25.2158 0.746875 27.1405 2.21992 28.0647C2.95164 28.5238 3.80617 28.6832 4.6875 28.6074V29.4531C4.6875 30.1003 5.21219 30.625 5.85938 30.625H10.5469C11.1941 30.625 11.7188 30.1003 11.7188 29.4531V15.3125C11.7188 14.6653 11.1941 14.1406 10.5469 14.1406H7.08477C7.67914 7.5368 13.2441 2.34375 20 2.34375C26.7559 2.34375 32.3209 7.5368 32.9152 14.1406H29.4531C28.8059 14.1406 28.2812 14.6653 28.2812 15.3125V29.4531C28.2812 30.1003 28.8059 30.625 29.4531 30.625H32.9688V31.7969C32.9688 33.7354 31.3916 35.3125 29.4531 35.3125H25.6578C25.1741 33.9486 23.8715 32.9688 22.3438 32.9688H20C18.0615 32.9688 16.4844 34.5459 16.4844 36.4844C16.4844 38.4229 18.0615 40 20 40H22.3438C23.8715 40 25.1741 39.0202 25.6578 37.6562H29.4531C32.684 37.6562 35.3125 35.0277 35.3125 31.7969C35.3125 30.3695 35.3125 29.5337 35.3125 28.6073C36.1939 28.6831 37.0485 28.5236 37.7801 28.0646C39.2531 27.1405 40 25.2158 40 22.3438C40 19.4765 39.2545 17.5619 37.7841 16.6531ZM4.6875 26.2485C4.31359 26.3136 3.84625 26.3181 3.46547 26.0792C2.74211 25.6255 2.34375 24.2988 2.34375 22.3438C2.34375 20.4074 2.7332 19.0962 3.44031 18.6516C3.82266 18.4112 4.30438 18.4284 4.6875 18.504V26.2485ZM9.375 16.4844V28.2812H7.03125V16.4844H9.375ZM22.3438 37.6562H20C19.3538 37.6562 18.8281 37.1305 18.8281 36.4844C18.8281 35.8382 19.3538 35.3125 20 35.3125H22.3438C22.9899 35.3125 23.5156 35.8382 23.5156 36.4844C23.5156 37.1305 22.9899 37.6562 22.3438 37.6562ZM32.9688 28.2812H30.625V16.4844H32.9688V28.2812ZM36.5429 26.074C36.1641 26.3158 35.6916 26.3111 35.3125 26.2454V18.5041C35.6956 18.4284 36.1773 18.4113 36.5597 18.6517C37.2668 19.0962 37.6562 20.4074 37.6562 22.3438C37.6562 24.2909 37.2608 25.6156 36.5429 26.074Z" fill="#1D4734"/>
</svg>
