<svg width="23" height="23" viewBox="0 0 23 23" fill="none" xmlns="http://www.w3.org/2000/svg">
<g clip-path="url(#clip0_16_1364)">
<path d="M11.4444 2.11171C14.4132 2.11171 14.7647 2.12473 15.9323 2.17681C17.0173 2.22456 17.6033 2.40685 17.9939 2.55876C18.5104 2.75841 18.8837 3.00147 19.2699 3.38775C19.6606 3.77837 19.8993 4.1473 20.0989 4.66379C20.2509 5.05442 20.4331 5.64469 20.4809 6.72542C20.533 7.8973 20.546 8.24886 20.546 11.2133C20.546 14.182 20.533 14.5336 20.4809 15.7011C20.4331 16.7862 20.2509 17.3721 20.0989 17.7628C19.8993 18.2792 19.6562 18.6525 19.2699 19.0388C18.8793 19.4294 18.5104 19.6681 17.9939 19.8678C17.6033 20.0197 17.013 20.202 15.9323 20.2497C14.7604 20.3018 14.4088 20.3148 11.4444 20.3148C8.47567 20.3148 8.12411 20.3018 6.95658 20.2497C5.87151 20.202 5.28557 20.0197 4.89495 19.8678C4.37845 19.6681 4.00519 19.4251 3.6189 19.0388C3.22828 18.6482 2.98956 18.2792 2.78991 17.7628C2.638 17.3721 2.45571 16.7818 2.40797 15.7011C2.35588 14.5292 2.34286 14.1777 2.34286 11.2133C2.34286 8.24452 2.35588 7.89296 2.40797 6.72542C2.45571 5.64035 2.638 5.05442 2.78991 4.66379C2.98956 4.1473 3.23262 3.77403 3.6189 3.38775C4.00953 2.99712 4.37845 2.75841 4.89495 2.55876C5.28557 2.40685 5.87585 2.22456 6.95658 2.17681C8.12411 2.12473 8.47567 2.11171 11.4444 2.11171ZM11.4444 0.11084C8.42793 0.11084 8.05033 0.123861 6.86543 0.175944C5.68488 0.228027 4.87324 0.419 4.17012 0.692437C3.43661 0.978895 2.81595 1.3565 2.19963 1.97716C1.57897 2.59348 1.20137 3.21414 0.91491 3.94331C0.641473 4.65077 0.450501 5.45806 0.398417 6.63862C0.346334 7.82785 0.333313 8.20546 0.333313 11.222C0.333313 14.2384 0.346334 14.616 0.398417 15.8009C0.450501 16.9815 0.641473 17.7931 0.91491 18.4963C1.20137 19.2298 1.57897 19.8504 2.19963 20.4667C2.81595 21.0831 3.43661 21.465 4.16578 21.7471C4.87324 22.0206 5.68054 22.2115 6.86109 22.2636C8.04599 22.3157 8.42359 22.3287 11.4401 22.3287C14.4566 22.3287 14.8342 22.3157 16.0191 22.2636C17.1996 22.2115 18.0113 22.0206 18.7144 21.7471C19.4436 21.465 20.0642 21.0831 20.6805 20.4667C21.2969 19.8504 21.6788 19.2298 21.9609 18.5006C22.2344 17.7931 22.4253 16.9858 22.4774 15.8053C22.5295 14.6204 22.5425 14.2428 22.5425 11.2263C22.5425 8.2098 22.5295 7.83219 22.4774 6.6473C22.4253 5.46674 22.2344 4.65511 21.9609 3.95199C21.6875 3.21414 21.3099 2.59348 20.6892 1.97716C20.0729 1.36084 19.4522 0.978895 18.7231 0.696777C18.0156 0.42334 17.2083 0.232368 16.0278 0.180284C14.8385 0.123861 14.4609 0.11084 11.4444 0.11084Z" fill="#EDEDED"/>
<path d="M11.4444 5.51465C8.29336 5.51465 5.73694 8.07107 5.73694 11.2221C5.73694 14.3732 8.29336 16.9296 11.4444 16.9296C14.5954 16.9296 17.1519 14.3732 17.1519 11.2221C17.1519 8.07107 14.5954 5.51465 11.4444 5.51465ZM11.4444 14.9244C9.40013 14.9244 7.74215 13.2664 7.74215 11.2221C7.74215 9.17784 9.40013 7.51986 11.4444 7.51986C13.4887 7.51986 15.1467 9.17784 15.1467 11.2221C15.1467 13.2664 13.4887 14.9244 11.4444 14.9244Z" fill="#EDEDED"/>
<path d="M18.71 5.28877C18.71 6.02661 18.1111 6.62123 17.3776 6.62123C16.6397 6.62123 16.0451 6.02227 16.0451 5.28877C16.0451 4.55092 16.6441 3.9563 17.3776 3.9563C18.1111 3.9563 18.71 4.55526 18.71 5.28877Z" fill="#EDEDED"/>
</g>
<defs>
<clipPath id="clip0_16_1364">
<rect width="22.2222" height="22.2222" fill="white" transform="translate(0.333313 0.11084)"/>
</clipPath>
</defs>
</svg>
