<svg width="23" height="23" viewBox="0 0 23 23" fill="none" xmlns="http://www.w3.org/2000/svg">
<g clip-path="url(#clip0_16_1369)">
<path d="M20.7995 0.11084H1.86285C0.955736 0.11084 0.222229 0.826986 0.222229 1.7124V20.7272C0.222229 21.6126 0.955736 22.3331 1.86285 22.3331H20.7995C21.7066 22.3331 22.4445 21.6126 22.4445 20.7315V1.7124C22.4445 0.826986 21.7066 0.11084 20.7995 0.11084ZM6.81511 19.0475H3.5165V8.43983H6.81511V19.0475ZM5.16581 6.99452C4.10678 6.99452 3.25174 6.13949 3.25174 5.0848C3.25174 4.03011 4.10678 3.17508 5.16581 3.17508C6.22049 3.17508 7.07553 4.03011 7.07553 5.0848C7.07553 6.13515 6.22049 6.99452 5.16581 6.99452ZM19.1589 19.0475H15.8646V13.8912C15.8646 12.6629 15.8429 11.0787 14.1502 11.0787C12.4358 11.0787 12.1754 12.4199 12.1754 13.8044V19.0475H8.88542V8.43983H12.0451V9.88949H12.0885C12.5269 9.05615 13.6033 8.17508 15.2049 8.17508C18.5425 8.17508 19.1589 10.3713 19.1589 13.2272V19.0475Z" fill="#EDEDED"/>
</g>
<defs>
<clipPath id="clip0_16_1369">
<rect width="22.2222" height="22.2222" fill="white" transform="translate(0.222229 0.11084)"/>
</clipPath>
</defs>
</svg>
