<svg width="16" height="17" viewBox="0 0 16 17" fill="none" xmlns="http://www.w3.org/2000/svg">
<path d="M3.64676 16.4785V5.9668H0.377231V16.4785H3.64676ZM1.99442 4.56055C3.04911 4.56055 3.89286 3.68164 3.89286 2.62695C3.89286 1.60742 3.04911 0.763672 1.99442 0.763672C0.974887 0.763672 0.131137 1.60742 0.131137 2.62695C0.131137 3.68164 0.974887 4.56055 1.99442 4.56055ZM15.846 16.4785H15.8811V10.7129C15.8811 7.90039 15.2483 5.7207 11.9436 5.7207C10.3616 5.7207 9.30692 6.59961 8.84989 7.4082H8.81473V5.9668H5.68582V16.4785H8.95536V11.2754C8.95536 9.9043 9.20145 8.60352 10.8889 8.60352C12.5764 8.60352 12.6116 10.1504 12.6116 11.3809V16.4785H15.846Z" fill="white"/>
</svg>
