<svg width="50" height="50" viewBox="0 0 50 50" fill="none" xmlns="http://www.w3.org/2000/svg">
<path d="M11.1043 6.81474C12.494 6.31887 14.0014 6.25625 15.4274 6.63516C16.8534 7.01407 18.1308 7.81667 19.0911 8.93694C20.0513 10.0572 20.6491 11.4424 20.8054 12.9096C20.9618 14.3768 20.6694 15.8569 19.9668 17.1543L42.2772 39.4668L39.3314 42.4127L17.0189 20.1002C15.7211 20.8 14.2418 21.0901 12.7758 20.9324C11.3099 20.7748 9.92608 20.1766 8.80683 19.2168C7.68757 18.2571 6.88538 16.9807 6.50596 15.5559C6.12654 14.1312 6.18771 12.6249 6.68139 11.2356L11.3418 15.896C11.6301 16.1945 11.9749 16.4325 12.3562 16.5963C12.7374 16.7601 13.1475 16.8463 13.5624 16.8499C13.9774 16.8535 14.3889 16.7744 14.7729 16.6173C15.157 16.4602 15.5059 16.2281 15.7993 15.9347C16.0927 15.6413 16.3247 15.2924 16.4819 14.9083C16.639 14.5243 16.7181 14.1128 16.7145 13.6979C16.7109 13.2829 16.6247 12.8729 16.4609 12.4916C16.2971 12.1103 16.059 11.7655 15.7606 11.4772L11.1022 6.81265L11.1043 6.81474ZM32.7022 10.7397L39.3314 7.0564L42.2772 10.0022L38.5939 16.6314L34.9106 17.3689L30.4939 21.7877L27.546 18.8418L31.9647 14.4231L32.7022 10.7397ZM18.7064 27.6814L21.6522 30.6272L10.6043 41.6752C10.2287 42.0518 9.72318 42.2706 9.19145 42.2865C8.65972 42.3024 8.14204 42.1143 7.74455 41.7608C7.34705 41.4073 7.09985 40.9151 7.05364 40.3851C7.00742 39.8551 7.16568 39.3276 7.49597 38.9106L7.65847 38.7293L18.7064 27.6814Z" fill="#1D4734"/>
</svg>
