<svg width="23" height="23" viewBox="0 0 23 23" fill="none" xmlns="http://www.w3.org/2000/svg">
<g clip-path="url(#clip0_16_1362)">
<path d="M7.43534 20.2498C15.819 20.2498 20.4058 13.3023 20.4058 7.27934C20.4058 7.08403 20.4015 6.88437 20.3928 6.68906C21.2851 6.04378 22.0551 5.24452 22.6667 4.32882C21.8357 4.69854 20.9534 4.94001 20.0499 5.04496C21.0012 4.47475 21.7135 3.57898 22.0547 2.5237C21.1598 3.05406 20.1811 3.42818 19.1606 3.63003C18.473 2.89943 17.5639 2.41569 16.5738 2.25359C15.5837 2.09149 14.5678 2.26007 13.6831 2.73326C12.7984 3.20645 12.0943 3.9579 11.6795 4.87142C11.2647 5.78495 11.1624 6.80967 11.3885 7.78715C9.5764 7.69622 7.80366 7.22549 6.18518 6.40548C4.56671 5.58548 3.13862 4.4345 1.9935 3.02717C1.41149 4.03062 1.2334 5.21803 1.49541 6.34807C1.75743 7.47811 2.43989 8.46599 3.40409 9.11094C2.68022 9.08795 1.97221 8.89306 1.33856 8.54236V8.59878C1.33791 9.65183 1.70196 10.6726 2.36882 11.4876C3.03568 12.3026 3.9642 12.8615 4.99654 13.0693C4.32599 13.2527 3.62222 13.2795 2.93968 13.1474C3.23099 14.053 3.79777 14.8451 4.56091 15.4131C5.32406 15.9811 6.2455 16.2967 7.19663 16.3158C5.58189 17.5842 3.58721 18.2722 1.53387 18.2689C1.16972 18.2684 0.805939 18.246 0.444458 18.2021C2.53044 19.5403 4.95699 20.2511 7.43534 20.2498Z" fill="#EDEDED"/>
</g>
<defs>
<clipPath id="clip0_16_1362">
<rect width="22.2222" height="22.2222" fill="white" transform="translate(0.444458 0.11084)"/>
</clipPath>
</defs>
</svg>
